<?xml version="1.0" encoding="UTF-8"?>
<svg version="1.1" xmlns="http://www.w3.org/2000/svg" width="500" height="175">
<path d="M0 0 C4.36674106 6.20695664 7.63435545 12.9881061 10.93139648 19.80957031 C11.81697262 21.63421541 12.71973162 23.44970968 13.62304688 25.265625 C14.18701172 26.42835937 14.75097656 27.59109375 15.33203125 28.7890625 C15.84483643 29.83787598 16.3576416 30.88668945 16.88598633 31.96728516 C18.0860515 35.23426075 18.37495983 37.54888334 18 41 C13.74603833 44.60942202 8.25264419 45.73498304 2.8125 46.375 C-0.69998565 45.90666858 -1.80594659 44.70037343 -4 42 C-4.66 43.65 -5.32 45.3 -6 47 C-5.31292969 47.01417969 -4.62585938 47.02835938 -3.91796875 47.04296875 C3.37367106 47.42893538 3.37367106 47.42893538 6.125 49.9375 C7.38603854 54.35113489 7.69919909 58.45136419 7 63 C4.6973159 66.37178743 2.86026619 67.14847069 -1 68 C-1.01458252 68.64026123 -1.02916504 69.28052246 -1.04418945 69.94018555 C-1.11891382 72.85654831 -1.21549293 75.77179687 -1.3125 78.6875 C-1.33505859 79.69490234 -1.35761719 80.70230469 -1.38085938 81.74023438 C-1.72269482 91.15624701 -1.72269482 91.15624701 -5 95 C-7.69539954 96.34769977 -9.93011831 96.28022191 -12.9375 96.375 C-14.52884766 96.44847656 -14.52884766 96.44847656 -16.15234375 96.5234375 C-19 96 -19 96 -20.84375 94.01171875 C-22.34783164 90.0939926 -22.48744883 86.60105304 -22.5625 82.4375 C-22.45854337 75.85628954 -22.45854337 75.85628954 -25 70 C-28.04199472 68.70768358 -28.04199472 68.70768358 -31 68 C-31.24234375 68.56589844 -31.4846875 69.13179688 -31.734375 69.71484375 C-32.06953125 70.44832031 -32.4046875 71.18179688 -32.75 71.9375 C-33.07484375 72.66839844 -33.3996875 73.39929688 -33.734375 74.15234375 C-35 76 -35 76 -37.140625 76.75390625 C-38.06101563 76.87572266 -38.06101563 76.87572266 -39 77 C-39.19397476 78.97854258 -39.38001321 80.9578648 -39.5625 82.9375 C-39.66691406 84.03964844 -39.77132812 85.14179687 -39.87890625 86.27734375 C-39.93884766 87.62505859 -39.93884766 87.62505859 -40 89 C-39.67 89.33 -39.34 89.66 -39 90 C-38.32391504 96.05876134 -39.10640554 100.65797945 -42 106 C-48.50656069 109.25328035 -62.13105032 105.94075086 -69 104 C-70.66137695 102.7487793 -70.66137695 102.7487793 -72 101 C-72.75336638 92.17701788 -69.67406187 82.47529134 -67.9375 73.8125 C-67.65248205 72.36924179 -67.36797337 70.92588291 -67.08398438 69.48242188 C-66.39517836 65.98710344 -65.6995319 62.49318967 -65 59 C-66.18142578 58.80083984 -66.18142578 58.80083984 -67.38671875 58.59765625 C-70.23469449 57.94632548 -71.17464166 57.20964431 -73 55 C-73.763125 55.33 -74.52625 55.66 -75.3125 56 C-80.16365548 57.31556759 -85.0052139 57.72922309 -90 57 C-91.83203125 55.66796875 -91.83203125 55.66796875 -93 54 C-93 53.01 -93 52.02 -93 51 C-93.61875 51.825 -94.2375 52.65 -94.875 53.5 C-97.42480789 56.05705166 -99.30056004 56.38846043 -102.875 56.4375 C-108.02933468 56.16824371 -113.21281009 55.78718991 -117 52 C-116.63955825 46.92840478 -115.28715211 42.45099627 -113.6015625 37.67578125 C-113.36593597 37.00709518 -113.13030945 36.33840912 -112.88754272 35.64945984 C-112.39149471 34.24749286 -111.89215087 32.846688 -111.38964844 31.44702148 C-110.62455267 29.31125127 -109.87418243 27.17069364 -109.125 25.02929688 C-108.63889514 23.66114738 -108.15194492 22.29329788 -107.6640625 20.92578125 C-107.22529785 19.69255127 -106.7865332 18.45932129 -106.33447266 17.1887207 C-105.13815643 14.33012462 -104.10427636 12.25458181 -102 10 C-98.69664934 8.89888311 -96.10167863 8.79773472 -92.625 8.75 C-91.50351563 8.72421875 -90.38203125 8.6984375 -89.2265625 8.671875 C-85.4987349 9.05097611 -83.92894718 9.67574626 -81 12 C-80.00835676 14.51525 -79.35603359 16.64921544 -78.796875 19.2578125 C-78.54469208 20.31329788 -78.54469208 20.31329788 -78.28741455 21.3901062 C-77.75583898 23.63109924 -77.25217142 25.87725381 -76.75 28.125 C-76.22784979 30.37821253 -75.70011935 32.63002882 -75.16973877 34.88131714 C-74.84202616 36.28105617 -74.5202076 37.6821904 -74.20477295 39.08474731 C-73.66720176 42.31685823 -73.66720176 42.31685823 -72 45 C-71.95512451 44.20827393 -71.91024902 43.41654785 -71.86401367 42.60083008 C-71.65232782 39.00375234 -71.42013586 35.40828105 -71.1875 31.8125 C-71.11724609 30.56662109 -71.04699219 29.32074219 -70.97460938 28.03710938 C-70.89404297 26.83505859 -70.81347656 25.63300781 -70.73046875 24.39453125 C-70.62835083 22.73707886 -70.62835083 22.73707886 -70.52416992 21.04614258 C-69.95142553 17.71771606 -68.98234734 15.71473414 -67 13 C-63.68026002 11.34013001 -60.0211202 11.73125344 -56.375 11.6875 C-55.59253906 11.65849609 -54.81007812 11.62949219 -54.00390625 11.59960938 C-47.22364351 11.52652197 -42.1372199 13.29278514 -36.9765625 17.74609375 C-31.69035602 24.36149087 -30.15511719 29.48618088 -31 38 C-32.71104084 45.08146098 -36.00947892 50.94578302 -42.25 54.875 C-43.49267171 55.59611242 -44.74032735 56.30901452 -46 57 C-45.14535156 57.20496094 -44.29070312 57.40992188 -43.41015625 57.62109375 C-42.30542969 57.89050781 -41.20070313 58.15992188 -40.0625 58.4375 C-38.96035156 58.70433594 -37.85820312 58.97117188 -36.72265625 59.24609375 C-34 60 -34 60 -33 61 C-32.88785156 59.96939453 -32.88785156 59.96939453 -32.7734375 58.91796875 C-32.37023101 56.15481839 -31.91821745 53.63987517 -31 51 C-27.875 48.875 -27.875 48.875 -25 48 C-25.33 47.67 -25.66 47.34 -26 47 C-26.38465736 39.3486634 -25.39764315 31.86924924 -24.40087891 24.29614258 C-24.12346363 22.17575694 -23.86010112 20.05392527 -23.59765625 17.93164062 C-23.42271475 16.57280829 -23.2469625 15.21408003 -23.0703125 13.85546875 C-22.91320801 12.63496826 -22.75610352 11.41446777 -22.59423828 10.15698242 C-22.06500543 7.34535138 -21.54342512 5.38623288 -20 3 C-18.01171875 1.98828125 -18.01171875 1.98828125 -15.6875 1.3125 C-14.88054687 1.07660156 -14.07359375 0.84070313 -13.2421875 0.59765625 C-12.50226563 0.40042969 -11.76234375 0.20320313 -11 0 C-9.6696875 -0.37125 -9.6696875 -0.37125 -8.3125 -0.75 C-5.08123702 -1.09932573 -3.10526042 -1.09977973 0 0 Z " fill="#FAF9E9" transform="translate(190,22)"/>
<path d="M0 0 C2.8125 1.625 2.8125 1.625 4.8125 3.625 C5.50180599 8.78465805 4.79767412 12.86058211 2.8125 17.625 C3.12386156 20.30270941 3.61028366 22.22056732 4.8125 24.625 C5.58908126 31.2148467 5.33877971 36.51652443 1.35546875 41.97265625 C-3.45229119 47.12121942 -9.4379584 48.46181369 -16.1875 49.625 C-15.8575 49.955 -15.5275 50.285 -15.1875 50.625 C-14.98287683 52.91093317 -14.87349267 55.20573737 -14.8125 57.5 C-14.76351562 58.75554687 -14.71453125 60.01109375 -14.6640625 61.3046875 C-15.1875 64.625 -15.1875 64.625 -17.4609375 66.5703125 C-20.1875 67.625 -20.1875 67.625 -24.1875 67.625 C-24.20731934 68.23496826 -24.22713867 68.84493652 -24.24755859 69.47338867 C-24.34317876 72.25350533 -24.45270705 75.03290846 -24.5625 77.8125 C-24.5934375 78.77220703 -24.624375 79.73191406 -24.65625 80.72070312 C-24.69492187 81.65205078 -24.73359375 82.58339844 -24.7734375 83.54296875 C-24.82056885 84.82337036 -24.82056885 84.82337036 -24.86865234 86.12963867 C-25.36943175 90.04883189 -26.38412748 92.82162748 -29.1875 95.625 C-32.12109375 95.92578125 -32.12109375 95.92578125 -35.625 95.9375 C-37.35556641 95.96263672 -37.35556641 95.96263672 -39.12109375 95.98828125 C-42.1875 95.625 -42.1875 95.625 -43.86083984 94.44873047 C-45.70036986 91.91996911 -45.52976009 90.18738548 -45.48046875 87.08203125 C-45.47080078 86.00888672 -45.46113281 84.93574219 -45.45117188 83.83007812 C-45.42603516 82.71052734 -45.40089844 81.59097656 -45.375 80.4375 C-45.36146484 79.30634766 -45.34792969 78.17519531 -45.33398438 77.00976562 C-45.29859958 74.21436683 -45.24922948 71.41992108 -45.1875 68.625 C-47.4975 68.295 -49.8075 67.965 -52.1875 67.625 C-54.33276035 61.82017788 -54.56465922 56.70004913 -53.1875 50.625 C-50.53525596 47.97275596 -49.01110236 48.24407977 -45.3046875 47.9921875 C-44.13808594 47.90839844 -42.97148437 47.82460937 -41.76953125 47.73828125 C-40.54621094 47.65964844 -39.32289063 47.58101562 -38.0625 47.5 C-36.83144531 47.41363281 -35.60039062 47.32726562 -34.33203125 47.23828125 C-31.284322 47.02565037 -28.23627896 46.82159346 -25.1875 46.625 C-26.13625 46.026875 -27.085 45.42875 -28.0625 44.8125 C-31.1875 42.625 -31.1875 42.625 -33.1875 39.625 C-32.98046875 36.99609375 -32.98046875 36.99609375 -32.375 34.0625 C-32.08689453 32.60650391 -32.08689453 32.60650391 -31.79296875 31.12109375 C-31.1875 28.625 -31.1875 28.625 -30.1875 26.625 C-29.5275 26.625 -28.8675 26.625 -28.1875 26.625 C-28.5175 25.84125 -28.8475 25.0575 -29.1875 24.25 C-30.82888271 18.29998766 -31.32516759 12.94409163 -28.5625 7.3125 C-21.08505883 -1.14881501 -11.02659759 -4.61578504 0 0 Z " fill="#F8F8F8" transform="translate(331.1875,22.375)"/>
<path d="M0 0 C1.83884766 0.00580078 1.83884766 0.00580078 3.71484375 0.01171875 C6.79965375 0.28888371 8.60270351 0.46316396 11.0625 2.3125 C11.8125 5.9375 11.8125 5.9375 12.0625 9.3125 C12.825625 8.9825 13.58875 8.6525 14.375 8.3125 C19.19344758 7.00580235 24.11548152 6.39609783 29.0625 7.3125 C31.30633228 9.71589369 32.68269834 12.34061951 34.0625 15.3125 C34.35125 14.19875 34.64 13.085 34.9375 11.9375 C36.0625 8.3125 36.0625 8.3125 38.0625 6.3125 C40.99609375 6.08203125 40.99609375 6.08203125 44.5 6.125 C46.23056641 6.13466797 46.23056641 6.13466797 47.99609375 6.14453125 C51.0625 6.3125 51.0625 6.3125 54.0625 7.3125 C56.66461517 12.51673034 54.70483402 18.89124974 53.41796875 24.29296875 C53.24751541 25.02824295 53.07706207 25.76351715 52.90144348 26.52107239 C52.54130096 28.06403522 52.17720222 29.60607951 51.80932617 31.1472168 C51.24978692 33.50089632 50.70918717 35.85840017 50.16992188 38.21679688 C49.81623714 39.7216209 49.46145701 41.22618799 49.10546875 42.73046875 C48.94596237 43.43157272 48.78645599 44.1326767 48.62211609 44.85502625 C47.70939607 48.60892244 46.7994038 51.52504765 44.0625 54.3125 C40.5920979 55.4693007 37.71895618 55.55263264 34.0625 55.625 C32.20625 55.68107422 32.20625 55.68107422 30.3125 55.73828125 C27.0625 55.3125 27.0625 55.3125 25.55541992 53.81616211 C23.47144877 50.32129307 22.23541345 46.66963431 20.92578125 42.828125 C20.49932564 41.60473419 20.49932564 41.60473419 20.06425476 40.35662842 C19.16112584 37.76085755 18.26794941 35.16178801 17.375 32.5625 C16.76302392 30.79795008 16.15040098 29.03362437 15.53710938 27.26953125 C14.03806497 22.95308285 12.54793482 18.63364984 11.0625 14.3125 C10.76013428 15.65997314 10.76013428 15.65997314 10.45166016 17.03466797 C9.70082118 20.36449434 8.94347198 23.69269833 8.18164062 27.02001953 C7.85316591 28.46082909 7.52730318 29.90223671 7.20410156 31.34423828 C6.73927078 33.41601473 6.26511062 35.48546373 5.7890625 37.5546875 C5.36488037 39.42423096 5.36488037 39.42423096 4.93212891 41.33154297 C4.0625 44.3125 4.0625 44.3125 2.0625 46.3125 C-0.87109375 46.578125 -0.87109375 46.578125 -4.375 46.5625 C-6.10556641 46.57023437 -6.10556641 46.57023437 -7.87109375 46.578125 C-10.9375 46.3125 -10.9375 46.3125 -13.9375 44.3125 C-15.48928308 39.90898415 -14.6782475 35.57282975 -14.046875 31.0546875 C-13.94159485 30.26981964 -13.8363147 29.48495178 -13.72784424 28.67630005 C-13.50330277 27.0233648 -13.274434 25.3710123 -13.04150391 23.71923828 C-12.6879841 21.19096214 -12.35698234 18.66039309 -12.02734375 16.12890625 C-11.80604898 14.52064541 -11.58343758 12.91256507 -11.359375 11.3046875 C-11.26235291 10.54840057 -11.16533081 9.79211365 -11.06536865 9.01290894 C-10.63763019 6.09072575 -10.26558927 3.77978915 -8.54956055 1.33569336 C-5.8277485 -0.39187203 -3.1606213 -0.04311446 0 0 Z M11.0625 9.3125 C12.0625 11.3125 12.0625 11.3125 12.0625 11.3125 Z " fill="#F9F9F9" transform="translate(329.9375,81.6875)"/>
<path d="M0 0 C3.41269467 3.26584631 3.63756435 6.73768133 4.16796875 11.29296875 C4.25250809 11.99843338 4.33704742 12.70389801 4.42414856 13.43074036 C4.60038531 14.92197832 4.77064302 16.41393351 4.93530273 17.90649414 C5.18490877 20.16406356 5.45305941 22.41880421 5.72460938 24.67382812 C8.04983501 44.42524749 8.04983501 44.42524749 5 49 C-0.15879488 50.96034206 -4.56556313 51.44544564 -10 51 C-10.66 50.46375 -11.32 49.9275 -12 49.375 C-13.85963303 47.78945262 -13.85963303 47.78945262 -15.91015625 48.140625 C-19.9463127 49.04894333 -22.13640288 50.01189866 -25 53 C-29.74770199 54.73473727 -33.95371421 55.48521979 -39 55 C-41.82435879 53.20009594 -42.06983753 51.72549865 -42.90722656 48.43408203 C-43.16474146 46.9608803 -43.40836393 45.48520617 -43.640625 44.0078125 C-43.7719281 43.22485809 -43.9032312 42.44190369 -44.03851318 41.63522339 C-44.31311952 39.98027216 -44.58171667 38.32431419 -44.84472656 36.66748047 C-45.2478145 34.13871074 -45.67316495 31.61443481 -46.1015625 29.08984375 C-46.36592267 27.47938595 -46.62898645 25.8687147 -46.890625 24.2578125 C-47.0176178 23.50557404 -47.1446106 22.75333557 -47.27545166 21.978302 C-47.88092684 18.08475562 -48.274409 14.77475362 -47 11 C-42.13250302 7.17553809 -36.09619953 6.0507312 -30 6 C-26.9375 8.125 -26.9375 8.125 -25 11 C-24.00537668 12.33734895 -23.00637459 13.6714715 -22 15 C-21.85304688 14.24074219 -21.70609375 13.48148438 -21.5546875 12.69921875 C-19.71301991 4.53872615 -19.71301991 4.53872615 -16.1875 1.875 C-10.76343462 0.38604088 -5.64265025 -0.5323255 0 0 Z " fill="#FBF8DB" transform="translate(63,29)"/>
<path d="M0 0 C2.3073257 3.46098855 2.03861971 4.93125589 1.42578125 8.92578125 C0.85426645 11.70994966 -0.00301524 14.34137398 -1 17 C-0.01 17.33 0.98 17.66 2 18 C2.47435062 25.78286393 1.89845082 33.69946518 -1 41 C-5.63300438 45.46618589 -10.36355155 46.95229149 -16.6796875 47.03515625 C-24.78064695 46.57512947 -30.85820543 44.66420773 -36.375 38.5625 C-40.85560472 33.16825241 -41.44240395 27.96579399 -41.31640625 21.13671875 C-40.5499711 13.53860242 -37.35038215 7.35038215 -32 2 C-22.09211906 -5.58901519 -10.84841411 -6.23783812 0 0 Z " fill="#FBF8DB" transform="translate(248,18)"/>
<path d="M0 0 C3.87089466 4.34782438 4.62564483 8.77221685 4.3984375 14.49609375 C3.6162255 19.41175934 1.50521893 23.49478107 -2 27 C-1.69347955 29.9425963 -1.32728846 32.34542308 0 35 C0.25 38 0.25 38 0 41 C-3.64464468 43.42976312 -5.65834431 43.36061651 -10 43.4375 C-11.85625 43.49744141 -11.85625 43.49744141 -13.75 43.55859375 C-17 43 -17 43 -18.9375 40.47265625 C-19.288125 39.65667969 -19.63875 38.84070313 -20 38 C-20.495 38.66 -20.99 39.32 -21.5 40 C-24.41794142 42.33435313 -26.28290845 42.45816896 -29.96875 42.265625 C-34.02009489 41.73583374 -37.09339733 40.90660267 -40 38 C-40.0402832 35.45532227 -40.0402832 35.45532227 -39.73828125 32.25390625 C-39.57320068 30.49844482 -39.57320068 30.49844482 -39.40478516 28.70751953 C-38.75643278 22.76911233 -38.0249544 16.85222692 -37.1875 10.9375 C-36.95836914 9.1440918 -36.95836914 9.1440918 -36.72460938 7.31445312 C-36.56154297 6.16783203 -36.39847656 5.02121094 -36.23046875 3.83984375 C-36.02006958 2.29864868 -36.02006958 2.29864868 -35.80541992 0.72631836 C-34.84044284 -2.54009542 -33.65027094 -3.89770485 -31 -6 C-21.21228107 -8.58543519 -7.51674243 -7.26554024 0 0 Z " fill="#FBF8DB" transform="translate(466,44)"/>
<path d="M0 0 C5.36676849 4.27664364 8.54494282 9.64621102 9.75 16.39453125 C10.412466 23.12960221 9.19543004 28.52142692 5.75 34.39453125 C-0.13460239 41.52323563 -8.36803945 46.13223161 -17.46484375 47.80078125 C-19.98458468 47.9286328 -21.75353704 47.75411602 -23.82177734 46.25610352 C-25.79683691 43.68177374 -26.28656059 41.26044882 -27.0390625 38.109375 C-27.34070313 36.85576172 -27.64234375 35.60214844 -27.953125 34.31054688 C-28.10458984 33.65610596 -28.25605469 33.00166504 -28.41210938 32.32739258 C-28.86849124 30.36008827 -29.34289784 28.39783976 -29.8203125 26.43554688 C-33.61442002 10.41689034 -33.61442002 10.41689034 -33.25 5.39453125 C-26.98677409 -4.18097759 -9.26006909 -5.4595824 0 0 Z " fill="#FBF8DA" transform="translate(109.25,84.60546875)"/>
<path d="M0 0 C1.20591797 -0.020625 2.41183594 -0.04125 3.65429688 -0.0625 C4.80865234 -0.06765625 5.96300781 -0.0728125 7.15234375 -0.078125 C8.21316162 -0.0874707 9.27397949 -0.09681641 10.36694336 -0.10644531 C13.0625 0.25 13.0625 0.25 14.90478516 1.62646484 C17.29820671 4.98290797 16.66466571 9.33909216 16.0625 13.25 C15.4025 14.054375 14.7425 14.85875 14.0625 15.6875 C11.24640912 19.29561644 11.57615284 22.21945574 11.71875 26.6875 C11.89944678 29.37158092 11.89944678 29.37158092 13.625 31.75 C16.05150949 35.9700165 14.74216101 40.57425983 14.0625 45.25 C15.0525 45.25 16.0425 45.25 17.0625 45.25 C17.041875 46.054375 17.02125 46.85875 17 47.6875 C16.76616379 50.18354885 16.76616379 50.18354885 18.0625 51.25 C18.13563567 53.78049402 18.15497527 56.28304837 18.125 58.8125 C18.12048828 59.52341797 18.11597656 60.23433594 18.11132812 60.96679688 C18.09950864 62.72790013 18.08157263 64.48896036 18.0625 66.25 C16.4125 65.92 14.7625 65.59 13.0625 65.25 C13.0625 59.64 13.0625 54.03 13.0625 48.25 C11.0825 48.745 11.0825 48.745 9.0625 49.25 C5.04513044 49.52248507 1.02562901 49.52704232 -3 49.5625 C-4.10150391 49.59150391 -5.20300781 49.62050781 -6.33789062 49.65039062 C-7.92053711 49.66295898 -7.92053711 49.66295898 -9.53515625 49.67578125 C-10.98160522 49.69765503 -10.98160522 49.69765503 -12.45727539 49.7199707 C-14.9375 49.25 -14.9375 49.25 -16.75024414 47.77001953 C-18.48786733 44.08181337 -18.36564595 40.4995449 -18.3359375 36.50390625 C-18.33880768 35.65577866 -18.34167786 34.80765106 -18.34463501 33.93382263 C-18.34667364 32.14264253 -18.34115784 30.35144007 -18.32861328 28.56030273 C-18.31257623 25.8254996 -18.32845806 23.09217873 -18.34765625 20.35742188 C-18.34567339 18.61458008 -18.34182884 16.87173921 -18.3359375 15.12890625 C-18.34201019 14.3141835 -18.34808289 13.49946075 -18.3543396 12.66004944 C-18.29748557 8.04557905 -17.92628516 4.9998902 -14.9375 1.25 C-10.5945639 -0.92146805 -4.7702644 0.02033144 0 0 Z " fill="#FBF8DB" transform="translate(217.9375,70.75)"/>
<path d="M0 0 C1.80791016 0.01933594 1.80791016 0.01933594 3.65234375 0.0390625 C9.49316496 0.61444695 9.49316496 0.61444695 12.0625 2.375 C15.87505265 9.39577965 16.46311883 18.3726101 17.75 26.125 C17.97494141 27.42566406 18.19988281 28.72632813 18.43164062 30.06640625 C20.80646067 44.08434096 20.80646067 44.08434096 19.03125 47.1640625 C16.01784871 49.01754345 12.98952811 48.80874905 9.5625 48.75 C8.88574219 48.76160156 8.20898438 48.77320313 7.51171875 48.78515625 C2.5883576 48.75602394 2.5883576 48.75602394 0.21875 47.0390625 C-0.85241189 45.49745789 -1.896209 43.9369365 -2.9375 42.375 C-3.80375 43.674375 -3.80375 43.674375 -4.6875 45 C-6.04296875 46.38671875 -6.04296875 46.38671875 -7.9375 47.375 C-13.19791236 47.29605793 -19.57741287 46.52674889 -23.9375 43.375 C-25.71803521 38.61801456 -23.98815968 35.01504208 -22.11328125 30.58984375 C-21.81060837 29.85173965 -21.50793549 29.11363556 -21.1960907 28.35316467 C-20.55411917 26.79654297 -19.90567592 25.24257661 -19.2512207 23.69116211 C-18.25473821 21.32375685 -17.28326479 18.94720174 -16.31445312 16.56835938 C-15.68636552 15.05407707 -15.05685469 13.54038415 -14.42578125 12.02734375 C-14.13705643 11.31996567 -13.8483316 10.61258759 -13.55085754 9.8837738 C-10.43721233 2.58092087 -8.07276247 -0.18954192 0 0 Z " fill="#FBF8DA" transform="translate(274.9375,15.625)"/>
<path d="M0 0 C6.91412971 -0.25197266 6.91412971 -0.25197266 8.93457031 1.33251953 C10.8194532 3.62675811 11.60201453 5.79644052 12.5859375 8.59765625 C12.96878906 9.6753125 13.35164063 10.75296875 13.74609375 11.86328125 C14.33197266 13.55324219 14.33197266 13.55324219 14.9296875 15.27734375 C15.51556641 16.9325 15.51556641 16.9325 16.11328125 18.62109375 C17.23234063 21.79364593 18.33471614 24.97140703 19.4296875 28.15234375 C19.737854 29.04099121 20.04602051 29.92963867 20.36352539 30.84521484 C20.63414795 31.63750488 20.90477051 32.42979492 21.18359375 33.24609375 C21.4163501 33.92607422 21.64910645 34.60605469 21.88891602 35.30664062 C22.70066647 38.07722004 22.9040929 40.30591134 22.4296875 43.15234375 C18.74416241 47.1108707 14.05538492 47.21283164 8.9296875 47.52734375 C5.07896996 47.5144866 4.55778322 47.25691168 1.3671875 44.65234375 C0.7278125 43.82734375 0.0884375 43.00234375 -0.5703125 42.15234375 C-0.8796875 42.95671875 -1.1890625 43.76109375 -1.5078125 44.58984375 C-2.5703125 47.15234375 -2.5703125 47.15234375 -3.5703125 48.15234375 C-5.83755019 48.30486168 -8.11062414 48.37426315 -10.3828125 48.40234375 C-11.62675781 48.428125 -12.87070312 48.45390625 -14.15234375 48.48046875 C-17.5703125 48.15234375 -17.5703125 48.15234375 -20.01953125 47.07421875 C-22.36648246 44.16565453 -21.75887098 41.82701986 -21.5703125 38.15234375 C-20.70872079 33.46124652 -19.53848964 28.85025635 -18.37207031 24.22705078 C-17.82095119 22.02989004 -17.29270436 19.82803468 -16.765625 17.625 C-16.41543807 16.21450152 -16.06392032 14.80433264 -15.7109375 13.39453125 C-15.39672852 12.12464355 -15.08251953 10.85475586 -14.75878906 9.54638672 C-13.51374914 5.9908105 -12.20155671 3.83032962 -9.5703125 1.15234375 C-6.33849784 0.31207194 -3.31871931 0.19670221 0 0 Z " fill="#FBF8DB" transform="translate(401.5703125,35.84765625)"/>
<path d="M0 0 C0.74588379 0.07822998 1.49176758 0.15645996 2.26025391 0.23706055 C5.881499 0.66835769 7.97783868 1.06855912 11.0625 3.125 C11.88859756 7.70093257 11.5863644 11.95821111 9.6875 16.1875 C8.0625 18.125 8.0625 18.125 6.0625 19.125 C5.29374298 21.63211589 5.29374298 21.63211589 4.8125 24.5625 C4.62171875 25.55121094 4.4309375 26.53992188 4.234375 27.55859375 C4.17765625 28.40550781 4.1209375 29.25242187 4.0625 30.125 C4.7225 30.785 5.3825 31.445 6.0625 32.125 C6.77356377 37.35341011 6.18661365 42.28674113 4.0625 47.125 C2.0625 49.125 2.0625 49.125 -0.01171875 49.390625 C-20.84993929 49.26603175 -20.84993929 49.26603175 -25.64892578 45.93823242 C-27.52287159 43.30128746 -27.08252672 41.56575208 -26.7421875 38.3828125 C-26.56381348 36.64112793 -26.56381348 36.64112793 -26.38183594 34.86425781 C-26.23520508 33.63030273 -26.08857422 32.39634766 -25.9375 31.125 C-25.79860352 29.89362305 -25.65970703 28.66224609 -25.51660156 27.39355469 C-25.06713763 23.59032265 -24.5709309 19.7957666 -24.0625 16 C-23.90136719 14.700625 -23.74023438 13.40125 -23.57421875 12.0625 C-23.32478516 10.20238281 -23.32478516 10.20238281 -23.0703125 8.3046875 C-22.92480957 7.18819824 -22.77930664 6.07170898 -22.62939453 4.92138672 C-20.20402926 -4.88105994 -7.64373368 -0.83069995 0 0 Z " fill="#FBF8DB" transform="translate(412.9375,90.875)"/>
<path d="M0 0 C1.31677734 -0.02126953 1.31677734 -0.02126953 2.66015625 -0.04296875 C4.9375 0.1875 4.9375 0.1875 6.9375 2.1875 C8.58177612 6.99532492 9.9924591 12.42864735 7.9375 17.1875 C5.09320839 19.20844404 2.1068022 20.74050546 -1.0625 22.1875 C-1.0625 24.1675 -1.0625 26.1475 -1.0625 28.1875 C2.0090108 27.74871274 3.87761052 27.22693941 6.5 25.5 C7.304375 25.066875 8.10875 24.63375 8.9375 24.1875 C11.54908521 25.02640309 12.6590918 25.67743124 13.984375 28.10546875 C16.8011644 37.197439 16.8011644 37.197439 15.9375 42.1875 C11.16887185 47.43299097 5.43283077 49.81300027 -1.5625 50.5625 C-8.03142937 49.86940042 -12.36446272 48.33339679 -16.875 43.5 C-22.88688804 35.93709975 -24.01612437 28.76240415 -23.0625 19.1875 C-21.45525949 12.11797108 -18.0405921 7.32073778 -12 3.4375 C-7.95922961 0.98666805 -4.73444883 0.03486339 0 0 Z " fill="#FBF8DA" transform="translate(364.0625,28.8125)"/>
<path d="M0 0 C3.20481832 3.20481832 3.18627408 6.65787964 3.3125 11.0625 C3.36857422 12.34833984 3.36857422 12.34833984 3.42578125 13.66015625 C3 16 3 16 1.1484375 17.7578125 C-1 19 -1 19 -3.6875 19.8125 C-4.450625 20.204375 -5.21375 20.59625 -6 21 C-6.89830839 24.05272465 -6.89830839 24.05272465 -7 27 C-2.6822542 26.49202991 1.03302114 25.80317221 5 24 C8.7253066 26.70931389 9.25027514 30.71352959 10 35 C10.4375 38.1875 10.4375 38.1875 10 41 C6.90523802 44.91396368 3.70818798 47.37353506 -1 49 C-7.45029987 49.74601494 -13.54699554 49.76490264 -19.25 46.390625 C-24.95553627 41.85676135 -28.11418687 36.18492873 -29 29 C-29.6487404 20.82587095 -28.05128241 14.13431214 -22.8125 7.6875 C-16.62197643 1.11743058 -8.94384841 -2.18627405 0 0 Z " fill="#FBF8DA" transform="translate(266,66)"/>
<path d="M0 0 C1.17433594 0.01417969 2.34867187 0.02835937 3.55859375 0.04296875 C5.32396484 0.05263672 5.32396484 0.05263672 7.125 0.0625 C9.99609375 0.23046875 9.99609375 0.23046875 10.99609375 1.23046875 C11.07689723 8.21188939 9.17824181 15.02175666 7.51342773 21.74438477 C6.13406317 27.38917862 5.19616035 33.01768086 4.48828125 38.7890625 C3.99609375 41.23046875 3.99609375 41.23046875 1.99609375 43.23046875 C-1.60501337 44.10878756 -5.03363436 44.27406185 -8.71875 44.25390625 C-9.52304443 44.25052246 -10.32733887 44.24713867 -11.15600586 44.24365234 C-11.76581299 44.23930176 -12.37562012 44.23495117 -13.00390625 44.23046875 C-13.32141846 43.36357422 -13.63893066 42.49667969 -13.96606445 41.60351562 C-15.15673946 38.35310099 -16.34768912 35.10278725 -17.53881836 31.85253906 C-18.05194743 30.45218809 -18.5649705 29.05179828 -19.07788086 27.65136719 C-19.57612373 26.29102347 -20.07456473 24.9307523 -20.57321167 23.57055664 C-21.05861309 22.24580302 -21.54325984 20.92077262 -22.02713013 19.59545898 C-23.26316118 16.21665346 -24.53919009 12.85836033 -25.859375 9.51171875 C-27.00390625 6.23046875 -27.00390625 6.23046875 -27.00390625 2.23046875 C-23.78977507 1.29586323 -20.78486076 1.00439819 -17.44140625 0.91796875 C-16.49136719 0.88058594 -15.54132813 0.84320313 -14.5625 0.8046875 C-12.00390625 1.23046875 -12.00390625 1.23046875 -10.23828125 3.109375 C-9.06996782 5.11695155 -7.98207439 7.12364506 -7.00390625 9.23046875 C-6.71515625 8.11671875 -6.42640625 7.00296875 -6.12890625 5.85546875 C-4.41685986 0.33887481 -4.41685986 0.33887481 0 0 Z " fill="#FBF8DA" transform="translate(371.00390625,87.76953125)"/>
<path d="M0 0 C1.58206057 0.00667536 3.16410534 0.0186375 4.74609375 0.03515625 C5.55240234 0.03966797 6.35871094 0.04417969 7.18945312 0.04882812 C9.18753131 0.06065107 11.18557158 0.07858711 13.18359375 0.09765625 C13.41433594 1.020625 13.64507812 1.94359375 13.8828125 2.89453125 C14.11532715 3.82410645 14.11532715 3.82410645 14.35253906 4.77246094 C14.70275923 6.17400116 15.05235311 7.57569801 15.40136719 8.97753906 C16.44042092 13.1464475 17.49304805 17.31143441 18.5625 21.47265625 C18.79042236 22.36629883 19.01834473 23.25994141 19.25317383 24.18066406 C19.70105468 25.93618989 20.15261904 27.69078074 20.6081543 29.44433594 C20.81351807 30.25290039 21.01888184 31.06146484 21.23046875 31.89453125 C21.41448242 32.60963867 21.59849609 33.32474609 21.78808594 34.06152344 C22.18359375 36.09765625 22.18359375 36.09765625 22.18359375 40.09765625 C20.24775865 40.46081291 18.30984127 40.81288356 16.37109375 41.16015625 C15.29214844 41.35738281 14.21320313 41.55460937 13.1015625 41.7578125 C10.18359375 42.09765625 10.18359375 42.09765625 7.18359375 41.09765625 C6.85359375 38.78765625 6.52359375 36.47765625 6.18359375 34.09765625 C3.87359375 34.09765625 1.56359375 34.09765625 -0.81640625 34.09765625 C-1.14640625 36.07765625 -1.47640625 38.05765625 -1.81640625 40.09765625 C-7.15642446 41.4326608 -10.6559586 40.61020125 -15.81640625 39.09765625 C-16.90585019 35.8348406 -16.73449699 34.0336175 -15.55859375 30.82421875 C-15.11797607 29.59602417 -15.11797607 29.59602417 -14.66845703 28.34301758 C-14.34603027 27.47829834 -14.02360352 26.6135791 -13.69140625 25.72265625 C-13.37026855 24.83666748 -13.04913086 23.95067871 -12.71826172 23.0378418 C-12.06691096 21.24200253 -11.4114961 19.44763193 -10.75195312 17.65478516 C-9.9063266 15.34343541 -9.08149184 13.02647378 -8.26953125 10.703125 C-7.92946045 9.73221924 -7.92946045 9.73221924 -7.58251953 8.74169922 C-7.37095215 8.13729004 -7.15938477 7.53288086 -6.94140625 6.91015625 C-4.55295086 0.11650335 -4.55295086 0.11650335 0 0 Z " fill="#FBF8DA" transform="translate(92.81640625,32.90234375)"/>
<path d="M0 0 C13.6332574 -0.55353075 13.6332574 -0.55353075 20 3 C19.85851011 4.6045556 19.71164314 6.20863767 19.5625 7.8125 C19.48128906 8.70582031 19.40007812 9.59914063 19.31640625 10.51953125 C19 13 19 13 18 16 C17.32453125 15.855625 16.6490625 15.71125 15.953125 15.5625 C15.06109375 15.376875 14.1690625 15.19125 13.25 15 C12.36828125 14.814375 11.4865625 14.62875 10.578125 14.4375 C7.77856035 13.88846325 7.77856035 13.88846325 4 14 C4 14.66 4 15.32 4 16 C4.74765625 16.15855469 5.4953125 16.31710938 6.265625 16.48046875 C14.27404281 18.37775098 14.27404281 18.37775098 17.625 21.25 C20.00564705 26.01129411 20.44451208 29.4164257 19 34.5625 C16.52616206 38.81440896 14.52999473 41.87045098 10 44 C1.7352843 45.28584057 -4.96010099 44.50553536 -12 40 C-12.19294408 35.17639811 -11.75747614 31.50353262 -10 27 C-8.845 27.474375 -7.69 27.94875 -6.5 28.4375 C-2.31429668 30.02208768 1.55238986 30.60289195 6 31 C6 30.01 6 29.02 6 28 C5.25234375 27.91363281 4.5046875 27.82726562 3.734375 27.73828125 C-4.3921946 26.57886229 -4.3921946 26.57886229 -7.625 23.5 C-9.96630015 19.24309063 -10.66107161 15.86295143 -10 11 C-7.94279143 7.10599807 -5.79832835 4.27899701 -2 2 C-1.34 2 -0.68 2 0 2 C0 1.34 0 0.68 0 0 Z " fill="#FBF8DB" transform="translate(314,21)"/>
<path d="M0 0 C0.64324219 0.06058594 1.28648437 0.12117188 1.94921875 0.18359375 C8.37839262 0.77973683 14.80772497 1.28513533 21.25 1.71875 C24 2 24 2 27 3 C26.49800802 6.72908331 25.95792977 10.36147686 25 14 C23.20841511 14.02696365 21.41671527 14.04637917 19.625 14.0625 C18.62726563 14.07410156 17.62953125 14.08570312 16.6015625 14.09765625 C14 14 14 14 12 13 C11.67 14.32 11.34 15.64 11 17 C13.64 17.33 16.28 17.66 19 18 C18.67 20.97 18.34 23.94 18 27 C15.03 27 12.06 27 9 27 C8.67 27.99 8.34 28.98 8 30 C13.94 30.99 13.94 30.99 20 32 C19.0625 41.10714286 19.0625 41.10714286 18 45 C9.10552463 45.34063948 1.26346464 44.37049973 -7 41 C-6.48657084 32.49393477 -5.25087185 24.33414999 -3.5 16 C-3.27441406 14.89527344 -3.04882812 13.79054688 -2.81640625 12.65234375 C-1.07537428 4.17382711 -1.07537428 4.17382711 0 0 Z " fill="#FBF8DA" transform="translate(129,79)"/>
<path d="M0 0 C10.56 0 21.12 0 32 0 C32 4.29 32 8.58 32 13 C29 14 29 14 24 14 C23.01 22.91 22.02 31.82 21 41 C16.71 41 12.42 41 8 41 C8 32.09 8 23.18 8 14 C5.36 14 2.72 14 0 14 C0 9.38 0 4.76 0 0 Z " fill="#FBF8DA" transform="translate(281,72)"/>
<path d="M0 0 C0 3.96 0 7.92 0 12 C-4.455 12.495 -4.455 12.495 -9 13 C-9 22.24 -9 31.48 -9 41 C-15 44 -15 44 -17.75 43.75 C-20 43 -20 43 -22 42 C-23.49414567 33.16198742 -23.12053246 23.93279453 -23 15 C-25.97 15 -28.94 15 -32 15 C-32 10.38 -32 5.76 -32 1 C-9.92027335 -0.14806378 -9.92027335 -0.14806378 0 0 Z " fill="#FBF8DA" transform="translate(193,71)"/>
<path d="M0 0 C3.3125 -0.25 3.3125 -0.25 7 0 C10.43388767 3.23156699 10.63945151 6.75388886 11.16796875 11.29296875 C11.25250809 11.99843338 11.33704742 12.70389801 11.42414856 13.43074036 C11.60038531 14.92197832 11.77064302 16.41393351 11.93530273 17.90649414 C12.18490877 20.16406356 12.45305941 22.41880421 12.72460938 24.67382812 C15.04983501 44.42524749 15.04983501 44.42524749 12 49 C6.84120512 50.96034206 2.43443687 51.44544564 -3 51 C-3.66 50.46375 -4.32 49.9275 -5 49.375 C-6.85963303 47.78945262 -6.85963303 47.78945262 -8.91015625 48.140625 C-12.9463127 49.04894333 -15.13640288 50.01189866 -18 53 C-22.74770199 54.73473727 -26.95371421 55.48521979 -32 55 C-34.82435879 53.20009594 -35.06983753 51.72549865 -35.90722656 48.43408203 C-36.16474146 46.9608803 -36.40836393 45.48520617 -36.640625 44.0078125 C-36.7719281 43.22485809 -36.9032312 42.44190369 -37.03851318 41.63522339 C-37.31311952 39.98027216 -37.58171667 38.32431419 -37.84472656 36.66748047 C-38.2478145 34.13871074 -38.67316495 31.61443481 -39.1015625 29.08984375 C-39.36592267 27.47938595 -39.62898645 25.8687147 -39.890625 24.2578125 C-40.0176178 23.50557404 -40.1446106 22.75333557 -40.27545166 21.978302 C-40.87991826 18.09124135 -41.27906877 14.76974489 -40 11 C-39.34 10.67 -38.68 10.34 -38 10 C-32.88436768 36.87412178 -32.88436768 36.87412178 -32 50 C-28.27095696 50.09829438 -26.29364534 49.69994598 -23 48 C-21.68 48 -20.36 48 -19 48 C-19.33 44.04 -19.66 40.08 -20 36 C-19.34 36 -18.68 36 -18 36 C-15 41.75 -15 41.75 -15 44 C-13.02 44 -11.04 44 -9 44 C-8.81824219 42.60974609 -8.81824219 42.60974609 -8.6328125 41.19140625 C-8.46523438 39.99386719 -8.29765625 38.79632813 -8.125 37.5625 C-7.96257813 36.36753906 -7.80015625 35.17257813 -7.6328125 33.94140625 C-7.42398438 32.97074219 -7.21515625 32.00007813 -7 31 C-6.34 30.67 -5.68 30.34 -5 30 C-3.61470179 35.45461169 -2.7603057 40.36718401 -3 46 C1.34184202 45.81535634 1.34184202 45.81535634 5 44 C6.66617115 43.95936168 8.33388095 43.957279 10 44 C9.81824219 42.41916626 9.81824219 42.41916626 9.6328125 40.80639648 C9.18157857 36.87259784 8.73553912 32.93822422 8.29101562 29.00366211 C8.09840835 27.30526021 7.90441839 25.6070145 7.70898438 23.90893555 C7.42729292 21.45922593 7.150683 19.00898594 6.875 16.55859375 C6.78750488 15.80726669 6.70000977 15.05593964 6.60986328 14.28184509 C6.11403931 9.82270288 5.91724651 5.48679105 6 1 C4.02 1 2.04 1 0 1 C0 0.67 0 0.34 0 0 Z " fill="#F8F8F7" transform="translate(56,29)"/>
<path d="M0 0 C1.74991334 -0.02715383 3.49994945 -0.04646551 5.25 -0.0625 C6.71179688 -0.07990234 6.71179688 -0.07990234 8.203125 -0.09765625 C10.65758678 -0.01195577 12.66168914 0.29293934 15 1 C15.19312498 6.1744176 14.55009063 10.45154104 13.1875 15.4375 C11.03231787 23.55702338 9.45176252 31.72935293 8 40 C3.05919662 42.28964059 3.05919662 42.28964059 0.04296875 41.46484375 C-1.67095437 40.71434788 -3.33998524 39.86320768 -5 39 C-4.62238404 29.79398337 -3.80396357 20.74646462 -2.5 11.625 C-2.36940186 10.70372314 -2.23880371 9.78244629 -2.10424805 8.83325195 C-1.13304317 2.26608633 -1.13304317 2.26608633 0 0 Z " fill="#FBF8DB" transform="translate(324,83)"/>
<path d="M0 0 C0.66 0 1.32 0 2 0 C0.53655344 13.80470864 -0.97127852 27.44286575 -4 41 C0.29 41.33 4.58 41.66 9 42 C9.33 38.04 9.66 34.08 10 30 C11.65 30.33 13.3 30.66 15 31 C15.66 34.96 16.32 38.92 17 43 C21.29 42.34 25.58 41.68 30 41 C29.34 39.411875 28.68 37.82375 28 36.1875 C26.74333269 33.16364428 26 31.29657856 26 28 C26.969375 27.195625 27.93875 26.39125 28.9375 25.5625 C32.25012766 22.82463217 32.25012766 22.82463217 33 19 C33.38841068 13.95066116 33.37143337 9.59465215 31 5 C31.66 5 32.32 5 33 5 C36.92526271 10.64256515 38.09097685 15.14395923 37 22 C35.60814337 25.90890577 33.93852148 29.06147852 31 32 C31.30652045 34.9425963 31.67271154 37.34542308 33 40 C33.25 43 33.25 43 33 46 C29.35535532 48.42976312 27.34165569 48.36061651 23 48.4375 C21.14375 48.49744141 21.14375 48.49744141 19.25 48.55859375 C16 48 16 48 14.0625 45.47265625 C13.711875 44.65667969 13.36125 43.84070313 13 43 C12.505 43.66 12.01 44.32 11.5 45 C8.58205858 47.33435313 6.71709155 47.45816896 3.03125 47.265625 C-1.02009489 46.73583374 -4.09339733 45.90660267 -7 43 C-7.15841651 33.98497495 -5.38619642 24.77181463 -4.0625 15.875 C-3.89298828 14.67101562 -3.72347656 13.46703125 -3.54882812 12.2265625 C-3.37931641 11.07671875 -3.20980469 9.926875 -3.03515625 8.7421875 C-2.8844165 7.7094873 -2.73367676 6.67678711 -2.57836914 5.61279297 C-2 3 -2 3 0 0 Z " fill="#F8F8F7" transform="translate(433,39)"/>
<path d="M0 0 C0.90105469 0.02707031 1.80210937 0.05414063 2.73046875 0.08203125 C3.76107422 0.13423828 3.76107422 0.13423828 4.8125 0.1875 C4.8125 0.5175 4.8125 0.8475 4.8125 1.1875 C0.3575 1.6825 0.3575 1.6825 -4.1875 2.1875 C-4.26790527 2.86103516 -4.34831055 3.53457031 -4.43115234 4.22851562 C-5.98303275 17.21914931 -7.54332443 30.20818463 -9.1875 43.1875 C-0.86208345 43.98606036 7.46892053 44.60923212 15.8125 45.1875 C16.1425 40.8975 16.4725 36.6075 16.8125 32.1875 C13.1825 31.8575 9.5525 31.5275 5.8125 31.1875 C6.1425 29.8675 6.4725 28.5475 6.8125 27.1875 C9.4525 27.1875 12.0925 27.1875 14.8125 27.1875 C15.1425 24.2175 15.4725 21.2475 15.8125 18.1875 C14.86375 18.208125 13.915 18.22875 12.9375 18.25 C9.8125 18.1875 9.8125 18.1875 7.8125 17.1875 C7.8125 16.1975 7.8125 15.2075 7.8125 14.1875 C12.1025 14.1875 16.3925 14.1875 20.8125 14.1875 C21.4725 10.5575 22.1325 6.9275 22.8125 3.1875 C23.4725 3.5175 24.1325 3.8475 24.8125 4.1875 C25.37614659 14.93853676 25.37614659 14.93853676 21.8125 19.1875 C20.8225 19.6825 20.8225 19.6825 19.8125 20.1875 C19.04374298 22.69461589 19.04374298 22.69461589 18.5625 25.625 C18.37171875 26.61371094 18.1809375 27.60242188 17.984375 28.62109375 C17.92765625 29.46800781 17.8709375 30.31492187 17.8125 31.1875 C18.4725 31.8475 19.1325 32.5075 19.8125 33.1875 C20.52356377 38.41591011 19.93661365 43.34924113 17.8125 48.1875 C15.8125 50.1875 15.8125 50.1875 13.73828125 50.453125 C-7.09993929 50.32853175 -7.09993929 50.32853175 -11.89892578 47.00073242 C-13.77287159 44.36378746 -13.33252672 42.62825208 -12.9921875 39.4453125 C-12.81381348 37.70362793 -12.81381348 37.70362793 -12.63183594 35.92675781 C-12.48520508 34.69280273 -12.33857422 33.45884766 -12.1875 32.1875 C-12.04860352 30.95612305 -11.90970703 29.72474609 -11.76660156 28.45605469 C-11.31713763 24.65282265 -10.8209309 20.8582666 -10.3125 17.0625 C-10.15136719 15.763125 -9.99023438 14.46375 -9.82421875 13.125 C-9.57478516 11.26488281 -9.57478516 11.26488281 -9.3203125 9.3671875 C-9.17480957 8.25069824 -9.02930664 7.13420898 -8.87939453 5.98388672 C-7.56272543 0.66238782 -5.22342413 -0.20351003 0 0 Z " fill="#F8F8F7" transform="translate(399.1875,89.8125)"/>
<path d="M0 0 C1.80791016 0.01933594 1.80791016 0.01933594 3.65234375 0.0390625 C9.49316496 0.61444695 9.49316496 0.61444695 12.0625 2.375 C15.87505265 9.39577965 16.46311883 18.3726101 17.75 26.125 C17.97494141 27.42566406 18.19988281 28.72632813 18.43164062 30.06640625 C20.80646067 44.08434096 20.80646067 44.08434096 19.03125 47.1640625 C16.01784871 49.01754345 12.98952811 48.80874905 9.5625 48.75 C8.88574219 48.76160156 8.20898438 48.77320313 7.51171875 48.78515625 C2.5883576 48.75602394 2.5883576 48.75602394 0.21875 47.0390625 C-0.85241189 45.49745789 -1.896209 43.9369365 -2.9375 42.375 C-3.80375 43.674375 -3.80375 43.674375 -4.6875 45 C-6.04296875 46.38671875 -6.04296875 46.38671875 -7.9375 47.375 C-13.19791236 47.29605793 -19.57741287 46.52674889 -23.9375 43.375 C-25.71803521 38.61801456 -23.98815968 35.01504208 -22.11328125 30.58984375 C-21.81060837 29.85173965 -21.50793549 29.11363556 -21.1960907 28.35316467 C-20.55411917 26.79654297 -19.90567592 25.24257661 -19.2512207 23.69116211 C-18.25473821 21.32375685 -17.28326479 18.94720174 -16.31445312 16.56835938 C-15.68636552 15.05407707 -15.05685469 13.54038415 -14.42578125 12.02734375 C-14.13705643 11.31996567 -13.8483316 10.61258759 -13.55085754 9.8837738 C-10.43721233 2.58092087 -8.07276247 -0.18954192 0 0 Z M-6.9375 1.375 C-9.08066846 6.3016275 -11.21671554 11.2312569 -13.34619141 16.16381836 C-14.07177425 17.84174897 -14.79930373 19.51883918 -15.52880859 21.19506836 C-16.57641014 23.60312661 -17.61699801 26.01410994 -18.65625 28.42578125 C-18.98435669 29.17587967 -19.31246338 29.92597809 -19.6505127 30.69880676 C-21.44677931 34.88478387 -21.44677931 34.88478387 -21.9375 39.375 C-20.52148286 39.85608275 -19.10465563 40.33478141 -17.6875 40.8125 C-16.89859375 41.07933594 -16.1096875 41.34617188 -15.296875 41.62109375 C-11.07079984 43.26561172 -11.07079984 43.26561172 -6.9375 42.375 C-6.21056096 40.39611039 -5.53933749 38.39545442 -4.9375 36.375 C-2.9575 36.375 -0.9775 36.375 1.0625 36.375 C1.3925 38.685 1.7225 40.995 2.0625 43.375 C7.06967218 45.04405739 12.03750206 44.79144237 17.0625 43.375 C15.69036119 29.92442878 13.4848913 16.67346983 11.0625 3.375 C5.18366651 0.76218512 -0.64481728 1.19171798 -6.9375 1.375 Z " fill="#F9F9F8" transform="translate(274.9375,15.625)"/>
<path d="M0 0 C0.66 0 1.32 0 2 0 C5.66877373 9.18278868 9.23974141 18.39113537 12.4375 27.75 C12.69611816 28.48718262 12.95473633 29.22436523 13.22119141 29.98388672 C14.5992297 34.09533338 15.44946172 37.60452878 15 42 C11.31447491 45.95852695 6.62569742 46.06048789 1.5 46.375 C-2.35071754 46.36214285 -2.87190428 46.10456793 -6.0625 43.5 C-6.701875 42.675 -7.34125 41.85 -8 41 C-8.309375 41.804375 -8.61875 42.60875 -8.9375 43.4375 C-10 46 -10 46 -11 47 C-13.26723769 47.15251793 -15.54031164 47.2219194 -17.8125 47.25 C-19.05644531 47.27578125 -20.30039062 47.3015625 -21.58203125 47.328125 C-25 47 -25 47 -27.44921875 45.921875 C-29.79635274 43.01308427 -29.18848277 40.67529753 -29 37 C-28.13878041 32.29055794 -26.96949113 27.66115236 -25.80175781 23.01977539 C-25.24982054 20.81178207 -24.72205222 18.5988871 -24.1953125 16.38476562 C-23.8452048 14.9709931 -23.4936903 13.55756806 -23.140625 12.14453125 C-22.82641602 10.86940674 -22.51220703 9.59428223 -22.18847656 8.28051758 C-20.95716127 4.88175349 -19.74833131 3.2877593 -17 1 C-19.09699786 10.70007949 -21.290341 20.36923158 -23.6875 30 C-23.90172607 30.86592773 -24.11595215 31.73185547 -24.33666992 32.62402344 C-24.53881104 33.4287207 -24.74095215 34.23341797 -24.94921875 35.0625 C-25.21738403 36.13177734 -25.21738403 36.13177734 -25.4909668 37.22265625 C-26 39 -26 39 -27 41 C-21.72 41.33 -16.44 41.66 -11 42 C-11 40.35 -11 38.7 -11 37 C-9 35 -9 35 -6.375 34.875 C-5.59125 34.91625 -4.8075 34.9575 -4 35 C-3.731875 35.78375 -3.46375 36.5675 -3.1875 37.375 C-2.15185568 40.28114923 -2.15185568 40.28114923 1 42 C3.94570927 41.21284876 3.94570927 41.21284876 7 40 C8.66236644 39.64584367 10.32861061 39.30878211 12 39 C11.63648438 37.88963379 11.27296875 36.77926758 10.8984375 35.63525391 C9.55368016 31.5250518 8.21277575 27.41360143 6.87304688 23.30175781 C6.29207111 21.52048873 5.7100435 19.73956237 5.12695312 17.95898438 C4.2902149 15.40323293 3.4572365 12.84628284 2.625 10.2890625 C2.23127197 9.09055161 2.23127197 9.09055161 1.82958984 7.86782837 C0 2.22774341 0 2.22774341 0 0 Z " fill="#F9F9F8" transform="translate(409,37)"/>
<path d="M0 0 C0.33 0 0.66 0 1 0 C1 14.19 1 28.38 1 43 C1.66 43 2.32 43 3 43 C3 43.66 3 44.32 3 45 C4.15757812 44.7834375 5.31515625 44.566875 6.5078125 44.34375 C8.04682443 44.06222343 9.5858898 43.78098887 11.125 43.5 C11.88554687 43.35691406 12.64609375 43.21382812 13.4296875 43.06640625 C14.55117187 42.86337891 14.55117187 42.86337891 15.6953125 42.65625 C16.37609863 42.53056641 17.05688477 42.40488281 17.75830078 42.27539062 C20.48655691 41.94022694 23.25123369 42 26 42 C26.33 37.71 26.66 33.42 27 29 C27.66 29.33 28.32 29.66 29 30 C29.93493027 35.01462597 30.13112344 38.97278473 29 44 C29.99 44 30.98 44 32 44 C31.979375 44.804375 31.95875 45.60875 31.9375 46.4375 C31.70366379 48.93354885 31.70366379 48.93354885 33 50 C33.07313567 52.53049402 33.09247527 55.03304837 33.0625 57.5625 C33.05798828 58.27341797 33.05347656 58.98433594 33.04882812 59.71679688 C33.03700864 61.47790013 33.01907263 63.23896036 33 65 C31.35 64.67 29.7 64.34 28 64 C28 58.39 28 52.78 28 47 C26.02 47.495 26.02 47.495 24 48 C19.98263044 48.27248507 15.96312901 48.27704232 11.9375 48.3125 C10.83599609 48.34150391 9.73449219 48.37050781 8.59960938 48.40039062 C7.01696289 48.41295898 7.01696289 48.41295898 5.40234375 48.42578125 C3.95589478 48.44765503 3.95589478 48.44765503 2.48022461 48.4699707 C0 48 0 48 -1.81274414 46.52001953 C-3.55036733 42.83181337 -3.42814595 39.2495449 -3.3984375 35.25390625 C-3.40130768 34.40577866 -3.40417786 33.55765106 -3.40713501 32.68382263 C-3.40917364 30.89264253 -3.40365784 29.10144007 -3.39111328 27.31030273 C-3.37507623 24.5754996 -3.39095806 21.84217873 -3.41015625 19.10742188 C-3.40817339 17.36458008 -3.40432884 15.62173921 -3.3984375 13.87890625 C-3.40451019 13.0641835 -3.41058289 12.24946075 -3.4168396 11.41004944 C-3.35998946 6.7958951 -2.97562428 3.76417889 0 0 Z " fill="#F9F8F7" transform="translate(203,72)"/>
<path d="M0 0 C7.41312524 -0.44478751 13.96063976 -0.81261519 20 4 C25.41849508 9.5757282 27.61376683 15.07329609 28.375 22.8125 C28.1041665 30.18202213 25.28646797 36.21791835 20 41.3125 C14.1045653 46.10862097 6.67282149 50.10751011 -1.0625 50.5 C-4.38781419 49.93398907 -4.99778636 49.6097229 -7 47 C-7.96728516 44.15600586 -7.96728516 44.15600586 -8.7890625 40.71484375 C-9.09070313 39.46123047 -9.39234375 38.20761719 -9.703125 36.91601562 C-9.85458984 36.26157471 -10.00605469 35.60713379 -10.16210938 34.93286133 C-10.61849124 32.96555702 -11.09289784 31.00330851 -11.5703125 29.04101562 C-15.26500387 13.44209235 -15.26500387 13.44209235 -15 8 C-14.34 7.01 -13.68 6.02 -13 5 C-12.34 5.33 -11.68 5.66 -11 6 C-11.04737305 7.5015564 -11.04737305 7.5015564 -11.09570312 9.03344727 C-10.99833936 13.06882774 -10.38120048 16.53804795 -9.46875 20.46484375 C-9.31337769 21.14301651 -9.15800537 21.82118927 -8.9979248 22.51991272 C-8.50572743 24.66082609 -8.00306384 26.79911692 -7.5 28.9375 C-7.16206216 30.39892725 -6.82481594 31.86051462 -6.48828125 33.32226562 C-5.666837 36.88339555 -4.83599559 40.44225435 -4 44 C0.57689442 45.46501036 3.82238798 44.02261145 8 42 C14.39863318 38.47008736 20.31816971 34.36891976 22.609375 27.0546875 C23.86360092 20.45745915 23.4512295 13.86709015 20 8 C15.71650601 3.2834752 11.51634713 1.94840506 5.3125 1.4375 C4.31863281 1.35371094 3.32476562 1.26992187 2.30078125 1.18359375 C1.16189453 1.09271484 1.16189453 1.09271484 0 1 C0 0.67 0 0.34 0 0 Z " fill="#F8F8F8" transform="translate(91,82)"/>
<path d="M0 0 C0.99 0.33 1.98 0.66 3 1 C2.13375 1.495 1.2675 1.99 0.375 2.5 C-5.30895731 6.29828427 -9.63102324 12.29201386 -11 19 C-11.60780202 25.01171454 -11.11559655 29.67333493 -8 35 C-4.55272484 38.7707232 -1.26831867 41.75496192 4 42 C4.76570313 42.03738281 5.53140625 42.07476562 6.3203125 42.11328125 C12.15167324 42.2786482 16.72078515 41.63960743 22 39 C22.56240942 36.97179493 22.56240942 36.97179493 22.8515625 34.52734375 C23.04492188 33.17866211 23.04492188 33.17866211 23.2421875 31.80273438 C23.36851562 30.85720703 23.49484375 29.91167969 23.625 28.9375 C23.7590625 27.98810547 23.893125 27.03871094 24.03125 26.06054688 C24.36225648 23.70803655 24.68478072 21.35466906 25 19 C25.99 19.33 26.98 19.66 28 20 C28.47435062 27.78286393 27.89845082 35.69946518 25 43 C20.36699562 47.46618589 15.63644845 48.95229149 9.3203125 49.03515625 C1.21935305 48.57512947 -4.85820543 46.66420773 -10.375 40.5625 C-14.85560472 35.16825241 -15.44240395 29.96579399 -15.31640625 23.13671875 C-14.5499711 15.53860242 -11.35038215 9.35038215 -6 4 C-2.875 1.5625 -2.875 1.5625 0 0 Z " fill="#F9F9F8" transform="translate(222,16)"/>
<path d="M0 0 C-1.44077046 3.36179774 -3.24750021 5.59156268 -6 8 C-6.66 8 -7.32 8 -8 8 C-10.11059936 14.87646889 -10.09808684 23.72323872 -7.875 30.5625 C-5.4135452 35.07516713 -2.65454139 37.6727293 2 40 C3.76770327 40.12240135 5.54060462 40.17551153 7.3125 40.1875 C8.25738281 40.20167969 9.20226562 40.21585938 10.17578125 40.23046875 C14.5243855 39.8756034 17.39699833 38.40200111 21 36 C21.53695997 30.63040026 20.43687342 26.11886156 19 21 C21.48919424 21.97202006 22.7448997 22.5326334 24.046875 24.91796875 C26.8636644 34.009939 26.8636644 34.009939 26 39 C21.23137185 44.24549097 15.49533077 46.62550027 8.5 47.375 C2.03107063 46.68190042 -2.30196272 45.14589679 -6.8125 40.3125 C-12.82438804 32.74959975 -13.95362437 25.57490415 -13 16 C-11.64626096 10.04551015 -7.21742305 0 0 0 Z " fill="#F9F9F7" transform="translate(354,32)"/>
<path d="M0 0 C-0.51949219 0.29132813 -1.03898437 0.58265625 -1.57421875 0.8828125 C-6.77650893 3.94072059 -11.98529501 7.12981111 -13.609375 13.32421875 C-14.6856035 20.69638396 -15.06594177 27.7868132 -11.21484375 34.37890625 C-8.96408312 37.38233282 -6.32630886 39.33684557 -3 41 C4.49056481 41.69336032 9.84974015 41.47291625 16 37 C16.21755666 31.5610835 16.10428384 27.12919186 14 22 C16.51580465 22.97721338 17.74991936 23.53343165 19.046875 25.953125 C21.76045627 34.81749049 21.76045627 34.81749049 21 39 C17.90523802 42.91396368 14.70818798 45.37353506 10 47 C3.54970013 47.74601494 -2.54699554 47.76490264 -8.25 44.390625 C-13.95553627 39.85676135 -17.11418687 34.18492873 -18 27 C-18.65700585 18.72172628 -17.03831526 12.06436848 -11.625 5.625 C-4.79191958 -1.59730653 -4.79191958 -1.59730653 0 0 Z " fill="#F8F8F7" transform="translate(255,68)"/>
<path d="M0 0 C0.8441938 3.97977076 1.44687265 7.97007218 2 12 C-0.43219831 14.24510613 -1.71781528 14.97120564 -5.0625 15.3125 C-8 15 -8 15 -11 13 C-11.33 13.495 -11.66 13.99 -12 14.5 C-15.24685713 16.93514285 -18.01076889 16.31660564 -22 16 C-22.66 15.34 -23.32 14.68 -24 14 C-23.71395102 12.32457024 -23.38218767 10.65614657 -23 9 C-23.33 8.67 -23.66 8.34 -24 8 C-24.1875 5.5625 -24.1875 5.5625 -24 3 C-22 1 -22 1 -20.0546875 0.8046875 C-18.03645833 0.86979167 -16.01822917 0.93489583 -14 1 C-12.5393715 3.64738916 -12 4.89448334 -12 8 C-11.01 8.33 -10.02 8.66 -9 9 C-9.350625 8.4225 -9.70125 7.845 -10.0625 7.25 C-11 5 -11 5 -10.8125 2.875 C-8.58426091 -2.26709021 -4.552644 -0.85898943 0 0 Z M-6 9 C-5.34 9.66 -4.68 10.32 -4 11 C-3.67 10.34 -3.34 9.68 -3 9 C-3.99 9 -4.98 9 -6 9 Z M-20 10 C-19.67 10.66 -19.34 11.32 -19 12 C-18.34 11.67 -17.68 11.34 -17 11 C-17.99 10.67 -18.98 10.34 -20 10 Z " fill="#6B5246" transform="translate(228,123)"/>
<path d="M0 0 C0.66 0 1.32 0 2 0 C4.60211517 5.20423034 2.64233402 11.57874974 1.35546875 16.98046875 C1.18501541 17.71574295 1.01456207 18.45101715 0.83894348 19.20857239 C0.47880096 20.75153522 0.11470222 22.29357951 -0.25317383 23.8347168 C-0.81271308 26.18839632 -1.35331283 28.54590017 -1.89257812 30.90429688 C-2.24626286 32.4091209 -2.60104299 33.91368799 -2.95703125 35.41796875 C-3.11653763 36.11907272 -3.27604401 36.8201767 -3.44038391 37.54252625 C-4.35310393 41.29642244 -5.2630962 44.21254765 -8 47 C-11.50711619 48.16903873 -14.36782386 48.16839619 -18.0625 48.1875 C-19.31160156 48.20167969 -20.56070312 48.21585938 -21.84765625 48.23046875 C-25 48 -25 48 -27 46 C-27.5625 43.64453125 -27.5625 43.64453125 -28 40.8125 C-28.54827998 37.4880087 -29.13093201 34.28272025 -30.125 31.0625 C-31 28 -31 28 -31 24 C-31.66 24 -32.32 24 -33 24 C-33.50692692 22.4188708 -34.00526443 20.83498617 -34.5 19.25 C-34.91765625 17.92742187 -34.91765625 17.92742187 -35.34375 16.578125 C-36 14 -36 14 -36 10 C-36.66 10 -37.32 10 -38 10 C-38 8.35 -38 6.7 -38 5 C-35.22150194 8.27951393 -33.93829985 11.50690716 -32.5546875 15.55859375 C-32.33934357 16.18476089 -32.12399963 16.81092804 -31.90213013 17.45606995 C-31.45004196 18.77528865 -31.0014446 20.09570823 -30.55615234 21.41723633 C-29.87750049 23.43008366 -29.18776596 25.43885993 -28.49609375 27.44726562 C-24.85406049 38.11236657 -24.85406049 38.11236657 -24 43 C-21.53768571 42.77234077 -19.08282721 42.51910517 -16.625 42.25 C-15.92632812 42.188125 -15.22765625 42.12625 -14.5078125 42.0625 C-10.56147579 41.68318786 -10.56147579 41.68318786 -7.57421875 39.3203125 C-6.8563699 36.41961715 -6.49168038 33.59995096 -6.1875 30.625 C-4.92992181 20.24742388 -2.43528436 10.15443997 0 0 Z " fill="#F6F6F5" transform="translate(382,89)"/>
<path d="M0 0 C1.32 0.33 2.64 0.66 4 1 C4.50838564 3.03959477 5.00633886 5.08179138 5.5 7.125 C5.7784375 8.26195312 6.056875 9.39890625 6.34375 10.5703125 C6.96453765 13.81466698 7.12006768 16.70814457 7 20 C5.68 20 4.36 20 3 20 C2.01 17.36 1.02 14.72 0 12 C-0.66 13.32 -1.32 14.64 -2 16 C-6.75 15.125 -6.75 15.125 -9 14 C-8.67 16.97 -8.34 19.94 -8 23 C-9.32 23.33 -10.64 23.66 -12 24 C-14.86599315 17.65387231 -16.35724142 10.96620762 -16 4 C-15.01 3.67 -14.02 3.34 -13 3 C-10.73828125 4.21484375 -10.73828125 4.21484375 -8.3125 5.9375 C-7.50425781 6.50339844 -6.69601563 7.06929687 -5.86328125 7.65234375 C-5.24839844 8.09707031 -4.63351563 8.54179687 -4 9 C-3.71125 8.071875 -3.4225 7.14375 -3.125 6.1875 C-2 3 -2 3 0 0 Z " fill="#6E564B" transform="translate(189,121)"/>
<path d="M0 0 C2.9375 2 2.9375 2 5 4 C4.67 5.65 4.34 7.3 4 9 C2.0625 8.625 2.0625 8.625 0 8 C-0.33 7.34 -0.66 6.68 -1 6 C-2.32 6 -3.64 6 -5 6 C-4.43410156 6.29132813 -3.86820312 6.58265625 -3.28515625 6.8828125 C2.68031225 10.21676502 2.68031225 10.21676502 4.25 14.0625 C4 17 4 17 2.5625 19.375 C-1.00238911 21.63566138 -3.88673571 21.68273444 -8 21 C-10.5 19.875 -10.5 19.875 -12 18 C-12.375 14.9375 -12.375 14.9375 -12 12 C-11.34 11.34 -10.68 10.68 -10 10 C-10.20625 9.05125 -10.4125 8.1025 -10.625 7.125 C-11 4 -11 4 -9.5 1.625 C-6.06921556 -0.60500988 -4.02367744 -0.56472666 0 0 Z M-7 12 C-7 13.32 -7 14.64 -7 16 C-5.10820797 16.6814823 -5.10820797 16.6814823 -3 17 C-2.34 16.34 -1.68 15.68 -1 15 C-3.67247634 12.65712582 -3.67247634 12.65712582 -7 12 Z " fill="#765F54" transform="translate(288,118)"/>
<path d="M0 0 C0.13559675 2.56428515 0.23433188 5.12135216 0.3125 7.6875 C0.3753418 8.7693457 0.3753418 8.7693457 0.43945312 9.87304688 C0.53549064 14.07949016 0.35158444 15.55337699 -2.35546875 18.9921875 C-5 21 -5 21 -7.625 21.4375 C-10 21 -10 21 -13 19 C-13.125 16 -13.125 16 -13 13 C-13.33 12.34 -13.66 11.68 -14 11 C-14.08227869 7.90279486 -13.78397732 4.99885033 -13 2 C-9.04423194 -2.07563982 -5.14875542 -0.95993745 0 0 Z M-8 4 C-9.29633621 5.06645115 -9.29633621 5.06645115 -9.0625 7.5625 C-9.041875 8.366875 -9.02125 9.17125 -9 10 C-7.68 10 -6.36 10 -5 10 C-4.67 8.35 -4.34 6.7 -4 5 C-5.94603274 4.40929986 -5.94603274 4.40929986 -8 4 Z " fill="#70584C" transform="translate(267,122)"/>
<path d="M0 0 C1.43861294 0.08746284 2.87597508 0.19565348 4.3125 0.3125 C5.11300781 0.37050781 5.91351563 0.42851563 6.73828125 0.48828125 C9.4161363 1.09415174 10.33913154 1.8454988 12 4 C13.06479227 7.49860317 13.26353437 9.31791103 11.9375 12.75 C9.51032728 15.56865219 7.6036005 16.23327649 4 17 C3.34 16.67 2.68 16.34 2 16 C1.67 17.65 1.34 19.3 1 21 C-0.65 20.67 -2.3 20.34 -4 20 C-3.7155186 17.79072956 -3.4220904 15.58261021 -3.125 13.375 C-2.96257812 12.14523438 -2.80015625 10.91546875 -2.6328125 9.6484375 C-2.04516311 6.26038483 -1.18011878 3.22301349 0 0 Z M4 6 C3.67 7.65 3.34 9.3 3 11 C4.32 11 5.64 11 7 11 C7.33 9.68 7.66 8.36 8 7 C6.68 6.67 5.36 6.34 4 6 Z " fill="#6E564A" transform="translate(295,125)"/>
<path d="M0 0 C0.99 0.33 1.98 0.66 3 1 C4.70701221 6.89695128 2.95193635 11.41988817 1 17 C-10.52164009 16.03644647 -10.52164009 16.03644647 -16 15 C-16.33 17.97 -16.66 20.94 -17 24 C-15.02 24.33 -13.04 24.66 -11 25 C-11.33 25.99 -11.66 26.98 -12 28 C-17.4 27.52 -17.4 27.52 -19.875 25.375 C-21.4841389 21.97792899 -21.52149375 19.71564293 -21 16 C-18.97351164 12.99295276 -17.41553372 11.39811886 -13.875 10.40234375 C-9.09932624 9.70051332 -5.49565154 10.04035702 -1 12 C-0.67 8.04 -0.34 4.08 0 0 Z " fill="#F5F5F3" transform="translate(246,18)"/>
<path d="M0 0 C1.32 0 2.64 0 4 0 C4.33 1.32 4.66 2.64 5 4 C6.6396875 3.690625 6.6396875 3.690625 8.3125 3.375 C12 3 12 3 15 5 C15.984375 7.05859375 15.984375 7.05859375 16.75 9.4375 C17.01296875 10.21996094 17.2759375 11.00242188 17.546875 11.80859375 C18 14 18 14 17 17 C15.68 17 14.36 17 13 17 C12.34 14.03 11.68 11.06 11 8 C10.01 8.495 10.01 8.495 9 9 C9.33 12.63 9.66 16.26 10 20 C8.35 19.67 6.7 19.34 5 19 C3.41796875 16.26953125 3.41796875 16.26953125 2.1875 12.8125 C1.76855469 11.68457031 1.34960938 10.55664062 0.91796875 9.39453125 C0.0230042 6.08506658 -0.18094679 3.40696956 0 0 Z " fill="#755E52" transform="translate(134,136)"/>
<path d="M0 0 C2.88507392 1.48152445 3.77668044 2.37789552 4.875 5.4375 C5.01828527 8.37484801 4.51780199 9.52358622 3 12 C2.62875 12.7425 2.2575 13.485 1.875 14.25 C1.58625 14.8275 1.2975 15.405 1 16 C-3.31255674 16.42279968 -5.37309762 16.43099539 -9 13.9375 C-11 11 -11 11 -11.0625 7.4375 C-9.16168523 1.28780514 -6.51358535 -0.94989786 0 0 Z M-5 5 C-2.32357511 7.18490007 -2.32357511 7.18490007 0 7 C0 6.34 0 5.68 0 5 C-1.65 5 -3.3 5 -5 5 Z M-6 10 C-4.02 10.99 -4.02 10.99 -2 12 C-1.67 11.34 -1.34 10.68 -1 10 C-2.65 10 -4.3 10 -6 10 Z " fill="#776055" transform="translate(319,129)"/>
<path d="M0 0 C2 1.6875 2 1.6875 3 4 C2.6875 7.25 2.6875 7.25 2 10 C1.34 10 0.68 10 0 10 C-0.33 11.65 -0.66 13.3 -1 15 C-5.31255674 15.42279968 -7.37309762 15.43099539 -11 12.9375 C-13 10 -13 10 -13.125 6.4375 C-10.84550726 -0.52761669 -6.88144439 -2.03894648 0 0 Z M-6 4 C-4.02 4.99 -4.02 4.99 -2 6 C-2 5.34 -2 4.68 -2 4 C-3.32 4 -4.64 4 -6 4 Z M-8 8 C-8 8.66 -8 9.32 -8 10 C-5.525 10.495 -5.525 10.495 -3 11 C-3.33 10.34 -3.66 9.68 -4 9 C-6.02463255 8.34786708 -6.02463255 8.34786708 -8 8 Z " fill="#776055" transform="translate(357,141)"/>
<path d="M0 0 C1.875 1.8125 1.875 1.8125 3 4 C3 7.30300113 2.83076794 9.84308184 2 13 C0 15 0 15 -3.9375 15.3125 C-6.4220467 15.23148217 -7.74105313 15.14200312 -9.9375 13.9375 C-11.56269287 10.97391301 -11.82357605 8.35205511 -12 5 C-11.2018293 2.315244 -10.47659001 1.3574425 -8.25 -0.3125 C-5.11963471 -1.2690005 -3.12105404 -0.92967567 0 0 Z M-6 4 C-6.33 4.66 -6.66 5.32 -7 6 C-5.68 5.67 -4.36 5.34 -3 5 C-3.99 4.67 -4.98 4.34 -6 4 Z M-4 9 C-4.66 9.66 -5.32 10.32 -6 11 C-4.35 10.67 -2.7 10.34 -1 10 C-1.99 9.67 -2.98 9.34 -4 9 Z " fill="#745D52" transform="translate(163,135)"/>
<path d="M0 0 C3.20481832 3.20481832 3.18627408 6.65787964 3.3125 11.0625 C3.34988281 11.91972656 3.38726562 12.77695313 3.42578125 13.66015625 C3 16 3 16 1.1484375 17.7578125 C-1 19 -1 19 -3.6875 19.8125 C-4.450625 20.204375 -5.21375 20.59625 -6 21 C-6.89830839 24.05272465 -6.89830839 24.05272465 -7 27 C-5.906875 26.835 -4.81375 26.67 -3.6875 26.5 C0 26 0 26 3 26 C-0.08388967 28.34963023 -2.33808311 29.88319114 -6.1875 30.5625 C-9 30 -9 30 -10.9375 27.9375 C-12.32712681 24.09559059 -12.13859929 21.91393507 -11 18 C-7.67447217 14.38942693 -4.82978133 13.44928198 0 13 C-0.144375 12.30132812 -0.28875 11.60265625 -0.4375 10.8828125 C-0.623125 9.97273438 -0.80875 9.06265625 -1 8.125 C-1.185625 7.22007813 -1.37125 6.31515625 -1.5625 5.3828125 C-2 3 -2 3 -2 1 C-4.97 1 -7.94 1 -11 1 C-11 0.67 -11 0.34 -11 0 C-7.02274741 -1.05280216 -3.99945368 -0.97764423 0 0 Z " fill="#FAFAF9" transform="translate(266,66)"/>
<path d="M0 0 C0.87785156 -0.00515625 1.75570313 -0.0103125 2.66015625 -0.015625 C4.9375 0.25 4.9375 0.25 6.9375 2.25 C8.58177612 7.05782492 9.9924591 12.49114735 7.9375 17.25 C5.09320839 19.27094404 2.1068022 20.80300546 -1.0625 22.25 C-1.0625 24.23 -1.0625 26.21 -1.0625 28.25 C2.4025 27.755 2.4025 27.755 5.9375 27.25 C4.8125 28.75 4.8125 28.75 2.9375 30.25 C-0.15065875 30.63601984 -2.16434376 30.72901666 -4.9375 29.25 C-6.77128802 25.9899324 -6.92320698 22.81082807 -6.0625 19.25 C-2.38718327 15.23279334 -0.47460845 14.33242169 4.9375 13.25 C4.2775 9.62 3.6175 5.99 2.9375 2.25 C-0.6925 2.25 -4.3225 2.25 -8.0625 2.25 C-4.81167327 0.08278218 -3.77017847 -0.02221018 0 0 Z " fill="#FAFAF8" transform="translate(364.0625,28.75)"/>
<path d="M0 0 C0.66 0 1.32 0 2 0 C3.20755308 2.41510615 3.23572748 4.11738049 3.3125 6.8125 C3.34988281 7.66457031 3.38726562 8.51664063 3.42578125 9.39453125 C3 12 3 12 0.99609375 14.0859375 C-2.15916836 18.6922497 -1.42272107 23.37510794 -1.25 28.8125 C-1.22292969 30.42415039 -1.22292969 30.42415039 -1.1953125 32.06835938 C-1.14829392 34.71315465 -1.0825916 37.35611589 -1 40 C-1.33 40 -1.66 40 -2 40 C-2 36.37 -2 32.74 -2 29 C-5.96 29 -9.92 29 -14 29 C-14 27.68 -14 26.36 -14 25 C-11.03 25 -8.06 25 -5 25 C-5.020625 23.906875 -5.04125 22.81375 -5.0625 21.6875 C-5 18 -5 18 -4 15 C-6.64 15 -9.28 15 -12 15 C-8.30827405 11.46209597 -4.90609405 11.40884117 0 11 C0 7.37 0 3.74 0 0 Z " fill="#F8F8F7" transform="translate(231,72)"/>
<path d="M0 0 C2 2 2 2 2 6 C1.01 6 0.02 6 -1 6 C-0.79375 6.94875 -0.5875 7.8975 -0.375 8.875 C-0.25125 9.90625 -0.1275 10.9375 0 12 C-2 14 -2 14 -5.375 14.375 C-9 14 -9 14 -11.4375 12.25 C-13 10 -13 10 -13 6 C-12.01 5.34 -11.02 4.68 -10 4 C-9.27034634 1.43717258 -9.27034634 1.43717258 -9 -1 C-5.19825711 -2.26724763 -3.6488868 -1.4750819 0 0 Z M-8 7 C-7.67 7.99 -7.34 8.98 -7 10 C-6.34 9.67 -5.68 9.34 -5 9 C-5.99 8.34 -6.98 7.68 -8 7 Z " fill="#776055" transform="translate(371,147)"/>
<path d="M0 0 C-0.3125 1.9375 -0.3125 1.9375 -1 4 C-1.99 4.33 -2.98 4.66 -4 5 C-3.44119141 6.22976562 -3.44119141 6.22976562 -2.87109375 7.484375 C-2.39800781 8.56203125 -1.92492187 9.6396875 -1.4375 10.75 C-0.96183594 11.81734375 -0.48617187 12.8846875 0.00390625 13.984375 C0.9946154 16.98369837 1.16161779 18.13421241 0 21 C-1.32 21 -2.64 21 -4 21 C-5.65 17.04 -7.3 13.08 -9 9 C-10.65 9 -12.3 9 -14 9 C-14.33 7.35 -14.66 5.7 -15 4 C-13.06767179 3.13419713 -11.12892806 2.28270059 -9.1875 1.4375 C-8.10855469 0.96183594 -7.02960938 0.48617187 -5.91796875 -0.00390625 C-3 -1 -3 -1 0 0 Z " fill="#755E53" transform="translate(133,139)"/>
<path d="M0 0 C0.66 0.66 1.32 1.32 2 2 C1.625 4.625 1.625 4.625 1 7 C-0.32 6.67 -1.64 6.34 -3 6 C-3 5.34 -3 4.68 -3 4 C-4.32 4.33 -5.64 4.66 -7 5 C-6.67 6.32 -6.34 7.64 -6 9 C-2.535 8.505 -2.535 8.505 1 8 C0.25 12.75 0.25 12.75 -2 15 C-5.55600891 15.46382725 -7.34990088 15.42769679 -10.375 13.4375 C-12.6085569 10.08716465 -12.49398209 7.9518567 -12 4 C-9.04682235 -1.34384527 -5.60200635 -1.31110787 0 0 Z " fill="#725B50" transform="translate(336,134)"/>
<path d="M0 0 C2.01822917 0.06510417 4.03645833 0.13020833 6.0546875 0.1953125 C7.515316 2.84270166 8.0546875 4.08979584 8.0546875 7.1953125 C8.1165625 8.71125 8.1165625 8.71125 8.1796875 10.2578125 C8.0546875 13.1953125 8.0546875 13.1953125 6.0546875 15.1953125 C4.1796875 15.4609375 4.1796875 15.4609375 2.0546875 15.4453125 C1.3534375 15.45046875 0.6521875 15.455625 -0.0703125 15.4609375 C-1.9453125 15.1953125 -1.9453125 15.1953125 -3.9453125 13.1953125 C-3.65926352 11.51988274 -3.32750017 9.85145907 -2.9453125 8.1953125 C-3.2753125 7.8653125 -3.6053125 7.5353125 -3.9453125 7.1953125 C-4.1328125 4.7578125 -4.1328125 4.7578125 -3.9453125 2.1953125 C-1.9453125 0.1953125 -1.9453125 0.1953125 0 0 Z M0.0546875 9.1953125 C0.3846875 9.8553125 0.7146875 10.5153125 1.0546875 11.1953125 C1.7146875 10.8653125 2.3746875 10.5353125 3.0546875 10.1953125 C2.0646875 9.8653125 1.0746875 9.5353125 0.0546875 9.1953125 Z " fill="#70584C" transform="translate(207.9453125,123.8046875)"/>
<path d="M0 0 C2.87511449 2.87511449 2.83614951 6.10482694 3 10 C2.5625 13 2.5625 13 2 15 C0.68 14.67 -0.64 14.34 -2 14 C-2.33 11.03 -2.66 8.06 -3 5 C-3.99 4.67 -4.98 4.34 -6 4 C-6 7.3 -6 10.6 -6 14 C-7.32 14.33 -8.64 14.66 -10 15 C-11 14 -11 14 -11.09765625 10.83984375 C-11.08025391 8.90818359 -11.08025391 8.90818359 -11.0625 6.9375 C-11.05347656 5.64714844 -11.04445312 4.35679688 -11.03515625 3.02734375 C-11.02355469 2.02832031 -11.01195312 1.02929688 -11 0 C-6.97722773 -0.73898993 -3.96113647 -1.21034726 0 0 Z " fill="#70584D" transform="translate(249,122)"/>
<path d="M0 0 C2.77849806 3.27951393 4.06170015 6.50690716 5.4453125 10.55859375 C5.66065643 11.18476089 5.87600037 11.81092804 6.09786987 12.45606995 C6.54995804 13.77528865 6.9985554 15.09570823 7.44384766 16.41723633 C8.12249951 18.43008366 8.81223404 20.43885993 9.50390625 22.44726562 C11.26937882 27.61716438 12.92575211 32.62876054 14 38 C21.92 37.01 21.92 37.01 30 36 C30 36.99 30 37.98 30 39 C24.07396419 41.57167592 19.62341727 43.36127731 13 43 C10.53677554 40.53677554 10.5250593 39.21132135 10 35.8125 C9.45172002 32.4880087 8.86906799 29.28272025 7.875 26.0625 C7 23 7 23 7 19 C6.34 19 5.68 19 5 19 C4.49307308 17.4188708 3.99473557 15.83498617 3.5 14.25 C3.2215625 13.36828125 2.943125 12.4865625 2.65625 11.578125 C2 9 2 9 2 5 C1.34 5 0.68 5 0 5 C0 3.35 0 1.7 0 0 Z " fill="#EEEDEB" transform="translate(344,94)"/>
<path d="M0 0 C1.77503906 0.03480469 1.77503906 0.03480469 3.5859375 0.0703125 C5.36871094 0.09738281 5.36871094 0.09738281 7.1875 0.125 C8.10273438 0.14820312 9.01796875 0.17140625 9.9609375 0.1953125 C9.9609375 0.5253125 9.9609375 0.8553125 9.9609375 1.1953125 C4.0209375 1.6903125 4.0209375 1.6903125 -2.0390625 2.1953125 C-3.3590625 8.7953125 -4.6790625 15.3953125 -6.0390625 22.1953125 C-8.98173529 19.25263971 -9.43456427 18.7206315 -10.20703125 14.96484375 C-10.46323242 13.76118164 -10.46323242 13.76118164 -10.72460938 12.53320312 C-10.89025391 11.69982422 -11.05589844 10.86644531 -11.2265625 10.0078125 C-11.40380859 9.16283203 -11.58105469 8.31785156 -11.76367188 7.44726562 C-12.19887229 5.36536093 -12.62030704 3.28058717 -13.0390625 1.1953125 C-10.41236421 3.7365897 -8.48765676 5.81525923 -7.0390625 9.1953125 C-6.6059375 7.5246875 -6.6059375 7.5246875 -6.1640625 5.8203125 C-4.44644311 0.28576113 -4.44644311 0.28576113 0 0 Z " fill="#F7F7F6" transform="translate(371.0390625,87.8046875)"/>
<path d="M0 0 C3.65316671 1.24976756 4.78065836 1.67098753 7 5 C7.67039106 11.9273743 7.67039106 11.9273743 5.125 16 C3 18 3 18 1 18 C-1.3938068 5.98821945 -1.3938068 5.98821945 -1 1 C-0.67 0.67 -0.34 0.34 0 0 Z " fill="#F7F7F5" transform="translate(96,95)"/>
<path d="M0 0 C2.5 0.9375 2.5 0.9375 5 3 C6.05518584 7.5259624 5.57898704 11.00745079 3.25 15 C0.96601713 17.030207 -0.10849963 17.41684026 -3 18 C-2.88566637 15.74943278 -2.75813564 13.49953326 -2.625 11.25 C-2.55539063 9.99703125 -2.48578125 8.7440625 -2.4140625 7.453125 C-2.04676696 4.39001879 -1.60288714 2.58025734 0 0 Z " fill="#F7F7F5" transform="translate(138,47)"/>
<path d="M0 0 C2.475 0.495 2.475 0.495 5 1 C5 2.32 5 3.64 5 5 C5.29850227 6.46585934 5.63358924 7.92462406 6 9.375 C6.84939592 12.99390516 7.19154837 16.26480686 7 20 C5.35 19.67 3.7 19.34 2 19 C1.66340751 16.58374679 1.33061612 14.16707192 1 11.75 C0.90460938 11.06808594 0.80921875 10.38617188 0.7109375 9.68359375 C0.2654774 6.40628012 0 3.31615847 0 0 Z " fill="#6F574C" transform="translate(196,120)"/>
<path d="M0 0 C1.32 0 2.64 0 4 0 C5.05619003 4.28297531 5.11702092 8.42985646 5.0625 12.8125 C5.05798828 13.50537109 5.05347656 14.19824219 5.04882812 14.91210938 C5.03713156 16.60811068 5.01919924 18.30406703 5 20 C3.35 19.67 1.7 19.34 0 19 C0 12.73 0 6.46 0 0 Z " fill="#786257" transform="translate(231,117)"/>
<path d="M0 0 C1.65687246 5.06088635 -0.01661687 9.47788194 -1.25 14.5 C-1.46785156 15.45003906 -1.68570312 16.40007812 -1.91015625 17.37890625 C-2.13058594 18.29542969 -2.35101563 19.21195313 -2.578125 20.15625 C-2.77825195 20.98962891 -2.97837891 21.82300781 -3.18457031 22.68164062 C-4.09600247 25.27294593 -5.15530783 26.96937368 -7 29 C-10.47325181 30.1577506 -13.36067448 30.06866652 -17 30 C-13.71536341 27.81024227 -10.79303725 27.00193437 -7 26 C-6.87496094 25.00355469 -6.74992187 24.00710937 -6.62109375 22.98046875 C-6.05226866 19.00869004 -5.10128888 15.1893385 -4.0625 11.3125 C-3.89298828 10.66216797 -3.72347656 10.01183594 -3.54882812 9.34179688 C-2.66104088 6.0303167 -1.68891027 2.99156752 0 0 Z " fill="#F8F8F8" transform="translate(381,107)"/>
<path d="M0 0 C1.56454159 4.02014661 0.46223974 7.69925681 -0.4375 11.75 C-0.58509766 12.44738281 -0.73269531 13.14476562 -0.88476562 13.86328125 C-1.24868033 15.5772021 -1.62329068 17.28884581 -2 19 C-2.99 19 -3.98 19 -5 19 C-6.17176518 16.87767021 -7.33754785 14.75242209 -8.5 12.625 C-8.83386719 12.02171875 -9.16773438 11.4184375 -9.51171875 10.796875 C-12 6.2265625 -12 6.2265625 -12 4 C-8.70851757 5.13499394 -8.0040131 5.99283376 -6.25 9.125 C-5.8375 10.07375 -5.425 11.0225 -5 12 C-4.67 12 -4.34 12 -4 12 C-3.79503906 11.21753906 -3.59007812 10.43507813 -3.37890625 9.62890625 C-3.10949219 8.61699219 -2.84007812 7.60507812 -2.5625 6.5625 C-2.29566406 5.55316406 -2.02882813 4.54382812 -1.75390625 3.50390625 C-1 1 -1 1 0 0 Z " fill="#FBFBF9" transform="translate(45,32)"/>
<path d="M0 0 C1.32 0 2.64 0 4 0 C3.50341703 5.66104589 2.45489316 9.87674471 0 15 C-1.32 14.67 -2.64 14.34 -4 14 C-3.46148032 8.72250715 -2.22656164 4.74354436 0 0 Z " fill="#7A6459" transform="translate(341,137)"/>
<path d="M0 0 C2.97 0.495 2.97 0.495 6 1 C6.625 3.8125 6.625 3.8125 7 7 C5 10 5 10 1.875 10.6875 C0.92625 10.790625 -0.0225 10.89375 -1 11 C-0.67 7.37 -0.34 3.74 0 0 Z " fill="#F5F5F5" transform="translate(447,49)"/>
<path d="M0 0 C-2.91502838 2.91502838 -4.96896609 4.29848535 -9.0625 4.375 C-12.40245063 4.05690946 -14.26631547 3.82245635 -17 2 C-17 1.67 -17 1.34 -17 1 C-14.54256214 0.63826036 -12.08441207 0.28531831 -9.625 -0.0625 C-8.57699219 -0.2181543 -8.57699219 -0.2181543 -7.5078125 -0.37695312 C-2.2265625 -1.11328125 -2.2265625 -1.11328125 0 0 Z " fill="#EEEEEC" transform="translate(141,75)"/>
<path d="M0 0 C-1.96382007 1.50559539 -3.78263366 2.89131683 -6 4 C-6.33 11.59 -6.66 19.18 -7 27 C-7.33 27 -7.66 27 -8 27 C-8 18.42 -8 9.84 -8 1 C-5.07175348 0.02391783 -3.04386724 -0.08226668 0 0 Z " fill="#F2F1E9" transform="translate(192,83)"/>
<path d="M0 0 C0.33 0 0.66 0 1 0 C2.9118963 8.60353336 -0.14234091 14.38941464 -4 22 C-3.51298949 14.40935336 -2.00236413 7.32940833 0 0 Z " fill="#EDECE9" transform="translate(380,99)"/>
<path d="M0 0 C2 3 2 3 2 5 C6.95 4.67 11.9 4.34 17 4 C12.68072606 7.23945545 11.84798489 7.35373864 6.75 7.1875 C5.13351562 7.14689453 5.13351562 7.14689453 3.484375 7.10546875 C2.25460937 7.05326172 2.25460937 7.05326172 1 7 C0.67 4.69 0.34 2.38 0 0 Z " fill="#E0E0DF" transform="translate(356,127)"/>
<path d="M0 0 C4.29 0.33 8.58 0.66 13 1 C12.01 2.485 12.01 2.485 11 4 C8.1796875 4.29296875 8.1796875 4.29296875 4.875 4.1875 C3.23144531 4.14689453 3.23144531 4.14689453 1.5546875 4.10546875 C0.29011719 4.05326172 0.29011719 4.05326172 -1 4 C-0.67 2.68 -0.34 1.36 0 0 Z " fill="#EFEEEC" transform="translate(141,92)"/>
<path d="M0 0 C0.99 0.33 1.98 0.66 3 1 C2.06027344 1.81404297 2.06027344 1.81404297 1.1015625 2.64453125 C0.28429687 3.35996094 -0.53296875 4.07539062 -1.375 4.8125 C-2.18710937 5.52019531 -2.99921875 6.22789063 -3.8359375 6.95703125 C-6.16183188 8.99981253 -6.16183188 8.99981253 -8 12 C-7.63166144 5.61546499 -7.63166144 5.61546499 -4.5625 2.625 C-2 1 -2 1 0 0 Z " fill="#EFEFEC" transform="translate(262,79)"/>
<path d="M0 0 C5.28 0 10.56 0 16 0 C11.41359638 3.43980272 9.67576609 4.56757661 4 4 C2.68 2.68 1.36 1.36 0 0 Z " fill="#EEEDEB" transform="translate(224,58)"/>
<path d="M0 0 C0.99 0.33 1.98 0.66 3 1 C2.29875 1.556875 1.5975 2.11375 0.875 2.6875 C-2.11344261 5.09124732 -5.05940238 7.53810432 -8 10 C-7.70179167 6.42150008 -7.25754642 5.23773516 -4.5625 2.75 C-2 1 -2 1 0 0 Z " fill="#EEEEEC" transform="translate(366,42)"/>
<path d="M0 0 C4.29 0 8.58 0 13 0 C10 3 10 3 7.51953125 3.29296875 C6.62621094 3.25816406 5.73289062 3.22335938 4.8125 3.1875 C3.91144531 3.16042969 3.01039063 3.13335937 2.08203125 3.10546875 C1.05142578 3.05326172 1.05142578 3.05326172 0 3 C0 2.01 0 1.02 0 0 Z " fill="#EDEDEC" transform="translate(407,104)"/>
<path d="M0 0 C2.875 0.25 2.875 0.25 6 1 C7.375 3.0625 7.375 3.0625 8 5 C5.36 4.67 2.72 4.34 0 4 C0 2.68 0 1.36 0 0 Z " fill="#F1F1EE" transform="translate(318,34)"/>
<path d="M0 0 C-1.0625 1.5 -1.0625 1.5 -3 3 C-6.5625 3.375 -6.5625 3.375 -10 3 C-10.66 2.01 -11.32 1.02 -12 0 C-10.37585622 -0.19477739 -8.75063577 -0.38059458 -7.125 -0.5625 C-6.22007812 -0.66691406 -5.31515625 -0.77132812 -4.3828125 -0.87890625 C-2 -1 -2 -1 0 0 Z " fill="#EEEEEC" transform="translate(369,73)"/>
<path d="M0 0 C0.33 0 0.66 0 1 0 C1 3.3 1 6.6 1 10 C-0.32 10 -1.64 10 -3 10 C-2.69201674 8.51988629 -2.378482 7.04092675 -2.0625 5.5625 C-1.88847656 4.73878906 -1.71445312 3.91507813 -1.53515625 3.06640625 C-1 1 -1 1 0 0 Z " fill="#F1F0EA" transform="translate(275,33)"/>
<path d="M0 0 C3.3 0 6.6 0 10 0 C9.01 1.485 9.01 1.485 8 3 C4.375 3.1875 4.375 3.1875 1 3 C0.67 2.01 0.34 1.02 0 0 Z " fill="#EEEEEC" transform="translate(312,65)"/>
<path d="M0 0 C2.475 0.495 2.475 0.495 5 1 C5 2.32 5 3.64 5 5 C3.68 5.33 2.36 5.66 1 6 C0.67 4.02 0.34 2.04 0 0 Z " fill="#96857D" transform="translate(196,120)"/>
<path d="M0 0 C1.98 0.495 1.98 0.495 4 1 C4 2.32 4 3.64 4 5 C2.35 5 0.7 5 -1 5 C-0.67 3.35 -0.34 1.7 0 0 Z " fill="#9B8B83" transform="translate(343,131)"/>
<path d="M0 0 C0.66 0 1.32 0 2 0 C2.33 2.97 2.66 5.94 3 9 C2.01 9 1.02 9 0 9 C0 6.03 0 3.06 0 0 Z " fill="#F0F0EB" transform="translate(400,54)"/>
<path d="M0 0 C1.88343932 3.76687864 2.22057835 5.02958963 2 9 C0.68 9 -0.64 9 -2 9 C-1.34 6.03 -0.68 3.06 0 0 Z " fill="#F0F0EC" transform="translate(96,49)"/>
<path d="M0 0 C2.64 0.66 5.28 1.32 8 2 C8 2.99 8 3.98 8 5 C5.6875 5.3125 5.6875 5.3125 3 5 C1.1875 2.5 1.1875 2.5 0 0 Z " fill="#EEEEEB" transform="translate(312,47)"/>
<path d="M0 0 C1.65 0 3.3 0 5 0 C3.70700306 2.88437779 2.34058637 4.87219421 0 7 C0 4.69 0 2.38 0 0 Z " fill="#F0EFEA" transform="translate(181,58)"/>
<path d="M0 0 C-1.49097658 3.7952131 -3.75700849 5.61042731 -7 8 C-6.65930765 4.84859577 -6.41923159 3.39218439 -4.0625 1.1875 C-2 0 -2 0 0 0 Z " fill="#FCFBEB" transform="translate(354,32)"/>
<path d="M0 0 C0.99 0.33 1.98 0.66 3 1 C2.071875 1.5775 1.14375 2.155 0.1875 2.75 C-2.63145447 4.73985022 -4.04562867 6.26388013 -6 9 C-6.66 9 -7.32 9 -8 9 C-6.40758592 4.70048197 -3.64459275 2.60328053 0 0 Z " fill="#FDFDFC" transform="translate(311,22)"/>
<path d="M0 0 C-0.28875 0.515625 -0.5775 1.03125 -0.875 1.5625 C-2.28780027 4.62356725 -3.1248517 7.74944918 -4 11 C-4.33 11 -4.66 11 -5 11 C-5.36637589 4.64948454 -5.36637589 4.64948454 -3.625 1.5625 C-2 0 -2 0 0 0 Z " fill="#94827A" transform="translate(329,134)"/>
<path d="M0 0 C3 1 3 1 4.1875 3.0625 C4.455625 3.701875 4.72375 4.34125 5 5 C3.824375 5.2165625 3.824375 5.2165625 2.625 5.4375 C0.03578982 5.87798925 0.03578982 5.87798925 -2 7 C-1.67 5.68 -1.34 4.36 -1 3 C-0.34 3 0.32 3 1 3 C0.67 2.01 0.34 1.02 0 0 Z " fill="#BEB4AE" transform="translate(218,129)"/>
<path d="M0 0 C1.32 0 2.64 0 4 0 C3.67 1.65 3.34 3.3 3 5 C2.01 4.67 1.02 4.34 0 4 C0 2.68 0 1.36 0 0 Z " fill="#867268" transform="translate(231,117)"/>
<path d="M0 0 C-3.18762365 2.12508244 -5.26512223 2.5020163 -9 3 C-9.33 2.34 -9.66 1.68 -10 1 C-6.52674819 -0.1577506 -3.63932552 -0.06866652 0 0 Z " fill="#EEEDE8" transform="translate(183,112)"/>
<path d="M0 0 C1.98 0 3.96 0 6 0 C4.6875 2 4.6875 2 3 4 C2.01 4 1.02 4 0 4 C0 2.68 0 1.36 0 0 Z " fill="#EEEEED" transform="translate(217,97)"/>
<path d="M0 0 C-3.44450737 2.29633824 -5.93812283 2.54016485 -10 3 C-10 2.34 -10 1.68 -10 1 C-6.52674819 -0.1577506 -3.63932552 -0.06866652 0 0 Z " fill="#EEEEE8" transform="translate(462,81)"/>
<path d="M0 0 C-0.8353125 0.37125 -0.8353125 0.37125 -1.6875 0.75 C-4.39971127 2.21606015 -6.63587365 4.02989471 -9 6 C-8.6875 4.125 -8.6875 4.125 -8 2 C-4.77208445 -0.1519437 -3.71599191 -0.20086443 0 0 Z " fill="#A2928B" transform="translate(226,122)"/>
<path d="M0 0 C2.31 0.33 4.62 0.66 7 1 C4.4345406 3.5654594 2.52313332 3.54046087 -1 4 C-0.67 2.68 -0.34 1.36 0 0 Z " fill="#EDEDEA" transform="translate(138,105)"/>
<path d="M0 0 C2.64 0 5.28 0 8 0 C5.33440687 1.77706209 2.9719385 2.87548273 0 4 C0 2.68 0 1.36 0 0 Z " fill="#EEEDE6" transform="translate(218,83)"/>
<path d="M0 0 C2 1 2 1 3.125 4.0625 C3.41375 5.031875 3.7025 6.00125 4 7 C2.68 7 1.36 7 0 7 C0 4.69 0 2.38 0 0 Z " fill="#EFEFED" transform="translate(182,41)"/>
</svg>
